<?xml version="1.0" encoding="utf-8"?>
<!-- Generator: Adobe Illustrator 26.2.1, SVG Export Plug-In . SVG Version: 6.00 Build 0)  -->
<svg version="1.1" id="a" xmlns="http://www.w3.org/2000/svg" xmlns:xlink="http://www.w3.org/1999/xlink" x="0px" y="0px"
	 viewBox="0 0 1179.8 95.6" style="enable-background:new 0 0 1179.8 95.6;" xml:space="preserve">
<style type="text/css">
	.st0{fill:#FF0000;stroke:#4D4D4D;stroke-width:8.000000e-02;stroke-miterlimit:10;}
	.st1{opacity:0.7;}
	.st2{fill:#FF0000;stroke:#4D4D4D;stroke-width:0.46;stroke-miterlimit:10;}
</style>
<g id="b">
	<g id="c">
		<path d="M37.9,34.6c-0.6-2.2-1.5-4.5-2.2-5.8c-1.1-1.9-1.8-2.4-5.7-2.4h-7v34.1c0,5.5,0.6,6.2,7.2,6.7v2H9.9v-2
			c6.5-0.4,7.1-1.1,7.1-6.7V26.5h-6.4c-3.8,0-5,0.4-6.2,2.5c-0.8,1.4-1.4,3.1-2.3,5.7H0C0.4,30.4,0.8,26,1,22h1.6
			c1,1.7,1.8,1.6,3.8,1.6h27.7c2,0,2.5-0.3,3.6-1.6h1.7c0,3.3,0.3,8.3,0.6,12.4C40,34.4,37.9,34.6,37.9,34.6z"/>
		<path d="M110.7,25.6c-5.8,0.6-6.4,0.9-6.4,6.8v28.1c0,5.9,0.6,6.1,6.4,6.7v2H91.9v-2c5.8-0.7,6.4-0.8,6.4-6.7v-14H74.3v14
			c0,5.8,0.6,6,6.3,6.7v2H61.9v-2c5.7-0.6,6.3-0.8,6.3-6.7V32.4c0-5.9-0.6-6.2-6.3-6.8v-2h18.7v2c-5.6,0.5-6.3,1-6.3,6.8v11.1h23.9
			V32.4c0-5.8-0.8-6.3-6.4-6.8v-2h18.8V25.6z"/>
		<path d="M170.2,58c-0.4,1.8-2.3,9-3,11.1h-34v-2c6.5-0.5,7-1.1,7-6.9V32.7c0-6.2-0.8-6.6-6-7.1v-2h21.4c6.6,0,9.3-0.1,10.1-0.1
			c0.1,1.8,0.4,7,0.6,10.7l-2.1,0.3c-0.6-2.4-1.3-3.9-2.1-5.3c-1.1-2.3-2.7-2.8-6.9-2.8h-6.6c-2.2,0-2.3,0.2-2.3,2.2v15.5h7.8
			c5.2,0,5.6-1,6.4-5.8h2.2v14.4h-2.2c-0.9-5-1.5-5.7-6.5-5.7h-7.7V61c0,4.9,1.5,5.3,5,5.4h6.5c4.3,0,5-0.6,6.5-2.5
			c1.3-1.5,2.8-4.3,3.8-6.4L170.2,58z"/>
		<path d="M312.5,22.7c12,0,22.7,9.2,22.7,23.1c0,15-10.2,24.4-23.1,24.4S288.8,60,288.8,46.8S297.7,22.7,312.5,22.7z M311.1,25.3
			c-7.8,0-15,6.6-15,19.7s7.1,22.6,17.1,22.6c8.5,0,14.8-6.3,14.8-19.8C328,33,320.2,25.3,311.1,25.3L311.1,25.3L311.1,25.3z"/>
		<path d="M388.7,34.6c-0.6-2-1.2-3.6-2.2-5.2c-1.3-2.4-2.4-2.9-6.3-2.9h-7.5c-2,0-2.2,0.2-2.2,2.2v16.2h8.7c5,0,5.4-0.8,6.4-5.7
			h2.1v14.6h-2.2c-0.9-4.9-1.4-6-6.4-6h-8.7v12.5c0,6.1,0.7,6.4,7.1,6.9v2h-19.5v-2c5.7-0.4,6.3-0.9,6.3-6.9V32.5
			c0-6.1-0.7-6.4-6.3-6.9v-2h22.2c6.3,0,8.7-0.1,9.9-0.1c0.1,2.5,0.4,7.4,0.7,10.8L388.7,34.6L388.7,34.6L388.7,34.6z"/>
		<path d="M432.5,23.6c9.9,0,16.1,2,20.4,6.1c3.4,3.4,6,8.3,6,15c0,8.2-3.4,14.8-8.8,18.9c-5.3,4-12.1,5.5-20.7,5.5H413v-2
			c6-0.6,6.3-1.1,6.3-6.8V32.5c0-6-0.8-6.3-6.3-6.9v-2C413,23.7,432.5,23.7,432.5,23.6z M425.4,59.8c0,5.2,2.2,6.7,7.5,6.7
			c12.6,0,19-8.6,19-20.9c0-7.6-2.6-13.4-8.1-16.8c-3.2-2-7.3-2.8-12-2.8c-3.1,0-4.8,0.4-5.5,1c-0.6,0.4-0.9,1.2-0.9,3.9V59.8z"/>
		<path d="M481.8,69.2v-2c5.7-0.6,6.3-0.9,6.3-6.9V32.6c0-6-0.6-6.3-6.3-6.9v-2h18.8v2c-5.8,0.6-6.4,0.9-6.4,6.9v27.8
			c0,6,0.6,6.2,6.4,6.9v2H481.8z"/>
		<path d="M548.5,69.2v-2c4.5-0.6,5.1-1.3,4.1-3.9c-0.9-2.7-2.3-6.2-3.8-10.6h-15.1c-1.1,3.2-2.2,5.9-3.2,8.8
			c-1.5,4.6-0.6,5.1,5.2,5.8v2h-16.2v-2c4.4-0.6,5.5-1.1,8-7.3l14.5-36.8l2.2-0.4c4.4,12,9.2,25.2,13.7,37.3
			c2.2,6.1,2.9,6.7,7.8,7.2v2H548.5z M541.5,31.9c-2.2,6-4.6,12.4-6.7,17.9h13.1L541.5,31.9L541.5,31.9L541.5,31.9z"/>
		<path d="M624,69.2v-2c5.7-0.6,6-1,5.9-8.5l0.1-28.6c-5.7,12.8-15,32.8-17.4,39h-1.8c-2.4-6.4-10.3-25.6-15.6-38.3
			c-1.2,24.5-1.3,30-1.3,31.4c0.1,3.9,1.8,4.5,6.6,5v2h-16.6v-2c4.1-0.4,5.7-1.3,6.3-5c0.4-3.1,0.5-5.6,2.3-31.1
			c0.3-3.6-0.4-4.8-6.6-5.4v-2h12.2l15.5,35.5l16.6-35.5h12.2v2c-6,0.7-6.8,1.3-6.7,6.2l0.3,26.9c0.3,7.5,0.5,7.8,6.7,8.5v2H624z"/>
		<path d="M687.9,22.7c12,0,22.7,9.2,22.7,23.1c0,15-10.2,24.4-23.1,24.4S664.2,60,664.2,46.8S673.1,22.7,687.9,22.7z M686.5,25.3
			c-7.8,0-15,6.6-15,19.7s7.1,22.6,17.1,22.6c8.5,0,14.8-6.3,14.8-19.8C703.4,33,695.7,25.3,686.5,25.3L686.5,25.3L686.5,25.3z"/>
		<path d="M781.9,25.6c-4.5,0.5-6,1.2-6.2,4.4c-0.1,2.2-0.2,5.2-0.2,11.7v28.1h-2.7l-30-36.6v17.5c0,6.3,0.2,9.5,0.3,11.5
			c0.1,3.6,1.9,4.6,6.9,5v2h-17v-2c4.3-0.3,6-1.4,6.3-4.8c0.2-2.2,0.3-5.4,0.3-11.8V32.7c0-2-0.1-3.1-1.4-4.6
			c-1.3-1.8-2.8-2.2-6.2-2.5v-2h10.5l29.7,35.2V41.7c0-6.5-0.1-9.5-0.3-11.6c-0.2-3.1-1.8-4.1-7.4-4.5v-2h17.3L781.9,25.6
			L781.9,25.6L781.9,25.6z"/>
		<path d="M823.1,23.6c9.9,0,16.1,2,20.4,6.1c3.4,3.4,6,8.3,6,15c0,8.2-3.4,14.8-8.8,18.9c-5.3,4-12.1,5.5-20.7,5.5h-16.4v-2
			c6-0.6,6.3-1.1,6.3-6.8V32.5c0-6-0.8-6.3-6.3-6.9v-2L823.1,23.6L823.1,23.6z M816,59.8c0,5.2,2.2,6.7,7.5,6.7
			c12.6,0,19-8.6,19-20.9c0-7.6-2.6-13.4-8.1-16.8c-3.2-2-7.3-2.8-12-2.8c-3.2,0-4.8,0.4-5.5,1c-0.6,0.4-0.9,1.2-0.9,3.9V59.8z"/>
		<path d="M896.8,34.3c-1.2-4.6-3.2-9.2-9.7-9.2c-5.5,0-7.3,4-7.3,7.6c0,4.8,3.1,7.3,8.9,10.3c8.4,4.3,12,7.6,12,14.2
			c0,7.3-6.4,12.9-15.4,12.9c-4.2,0-7.8-1.2-10.7-2.3c-0.6-2-1.4-6.7-1.9-10.5l2.2-0.6c1.4,4.7,4.5,10.8,11.8,10.8
			c5,0,8.1-3.5,8.1-8c0-5.4-2.9-7.6-9-10.9c-7.3-4-11.5-7.3-11.5-13.9s5.2-12.1,14.4-12.1c3.9,0,7.8,1,9.2,1.3
			c0.3,2.5,0.6,5.3,1.1,9.9L896.8,34.3L896.8,34.3L896.8,34.3z"/>
		<path d="M927.4,70.1c-2.5,0-4.3-1.8-4.3-4.5c0-2.5,1.8-4.5,4.3-4.5s4.4,2,4.4,4.5C931.8,68.3,929.9,70.1,927.4,70.1z"/>
		<path d="M984.7,34.6c-0.6-2.2-1.5-4.5-2.2-5.8c-1.1-1.9-1.8-2.4-5.7-2.4h-7v34.1c0,5.5,0.6,6.2,7.2,6.7v2h-20.4v-2
			c6.5-0.4,7.1-1.1,7.1-6.7V26.5h-6.4c-3.8,0-5,0.4-6.2,2.5c-0.8,1.4-1.4,3.1-2.3,5.7h-2.1c0.4-4.3,0.8-8.7,1-12.6h1.6
			c1,1.7,1.8,1.6,3.8,1.6H981c2,0,2.5-0.3,3.6-1.6h1.7c0,3.3,0.3,8.3,0.6,12.4L984.7,34.6L984.7,34.6L984.7,34.6z"/>
		<path d="M1045.1,58c-0.4,1.8-2.3,9-3,11.1h-34v-2c6.5-0.5,7-1.1,7-6.9V32.7c0-6.2-0.8-6.6-6-7.1v-2h21.4c6.6,0,9.3-0.1,10.2-0.1
			c0.1,1.8,0.3,7,0.6,10.7l-2.1,0.3c-0.6-2.4-1.3-3.9-2.1-5.3c-1.1-2.3-2.7-2.8-6.9-2.8h-6.7c-2.2,0-2.3,0.2-2.3,2.2v15.5h7.8
			c5.2,0,5.6-1,6.4-5.8h2.2v14.4h-2.2c-0.9-5-1.5-5.7-6.5-5.7h-7.7V61c0,4.9,1.5,5.3,5,5.4h6.5c4.3,0,5-0.6,6.5-2.5
			c1.3-1.5,2.8-4.3,3.8-6.4L1045.1,58L1045.1,58L1045.1,58z"/>
		<path d="M1108.2,58c-1,3.4-2.8,8.4-3.8,10.6c-2,0.4-7.5,1.7-12.8,1.7c-16.7,0-25.3-11.1-25.3-23.4c0-14.3,10.8-24.1,26.5-24.1
			c6,0,10.9,1.3,13.2,1.6c0.3,3.1,0.8,7.4,1.3,10.9l-2.2,0.5c-1.4-4.7-3.1-7.6-6.7-9c-1.8-0.8-4.7-1.3-7.3-1.3
			c-11.6,0-17.6,8.5-17.6,20.1c0,13.5,7,22.2,18.3,22.2c7.1,0,10.6-3.3,14.2-10.3L1108.2,58L1108.2,58L1108.2,58z"/>
		<path d="M1179.8,25.6c-5.8,0.6-6.4,0.9-6.4,6.8v28.1c0,5.9,0.6,6.1,6.4,6.7v2H1161v-2c5.8-0.7,6.4-0.8,6.4-6.7v-14h-23.9v14
			c0,5.8,0.6,6,6.3,6.7v2H1131v-2c5.7-0.6,6.3-0.8,6.3-6.7V32.4c0-5.9-0.6-6.2-6.3-6.8v-2h18.7v2c-5.6,0.5-6.3,1-6.3,6.8v11.1h23.9
			V32.4c0-5.8-0.8-6.3-6.4-6.8v-2h18.8V25.6z"/>
	</g>
</g>
<g id="d">
	<g id="e">
		<g>
			<path class="st0" d="M258.4,67.7c0.1,0.2,0.1,0.4,0.2,0.7c0,0.2-0.1,0.3-0.3,0.2c-0.5-0.2-0.9-0.1-1.3,0.3
				c-0.2,0.2-0.5,0.2-0.7,0.3c-0.3,0.1-0.5,0.1-0.8,0.3c-0.2,0.2-0.6,0.3-0.9,0.4c-0.5,0.2-0.9,0.4-1.4,0.7c0,0,0,0,0,0
				c-0.3,0-0.5,0.2-0.4,0.5c0.1,0.3,0.2,0.5,0.4,0.7c0.2,0.3,0.6,0.2,0.9,0.4c0.2,0.2,0.4,0.4,0.7,0.6c0.2,0.2,0.4,0.6,0.2,0.8
				c-0.1,0.2-0.4,0.3-0.5,0.5c-0.2,0.2-0.4,0.4-0.6,0.5c-0.2,0.2-0.3,0.4-0.5,0.4c-0.4,0.1-0.4,0.6-0.9,0.6c-0.2,0-0.4,0.4-0.4,0.6
				c-0.1,0.3-0.2,0.5-0.4,0.7c-0.3,0.3-0.6,0.7-1,1c-0.6,0.6-1.2,1.1-1.7,1.7c-0.2,0.2-0.4,0.4-0.5,0.6c-0.1,0.1-0.1,0.1-0.2,0.2
				c-0.2,0.1-0.3,0.3-0.5,0.4c-0.1,0.1-0.2,0.2-0.3,0.3c-0.2,0.2-0.3,0.4-0.5,0.6c-0.1,0.1-0.2,0.1-0.3,0.2
				c-0.1-0.1-0.1-0.2-0.1-0.3c0-0.1,0-0.2,0.1-0.2c0.6-0.3,0.5-1.1,0.9-1.5c0.1-0.1,0.2-0.2,0.4-0.2c0.2,0,0.4-0.2,0.6-0.4
				c0.1-0.1,0.2-0.3,0.3-0.4l0.3,0.4l0.1,0c0-0.1-0.1-0.3-0.1-0.4c0-0.1,0-0.3,0-0.4c0.6-0.4,1-1.1,1.8-1.2c0.1,0,0.2-0.3,0.3-0.5
				c0-0.3,0-0.6,0-0.9c0-0.6-0.1-1.2,0.3-1.7c0.1-0.1,0-0.3-0.1-0.5c-0.2,0.1-0.4,0.1-0.5,0.2c-0.3,0.3-0.4,0.7-0.6,1.1
				c-0.3,0.7-0.6,1.4-1.3,1.8c-0.2,0.1-0.3,0.3-0.4,0.5c-0.3,0.3-0.6,0.6-0.9,0.9c-0.3,0.4-0.7,0.7-1,1.1c-0.3,0.3-0.7,0.6-1,0.9
				c-0.1,0.1-0.1,0.2-0.2,0.3c-0.2,0.4-0.4,0.8-0.6,1.2c-0.2,0.3-0.5,0.5-0.7,0.7c-0.1,0.1-0.2,0.2-0.2,0.3c0.1,0.5-0.2,0.9-0.6,1.2
				c-0.1,0.1-0.2,0.3-0.2,0.5c0,0.3,0,0.6-0.3,0.8c-0.2,0.1-0.3,0.4-0.4,0.5c-0.4,0.4-0.7,0.8-1.1,1.2c-1,1-2,1.9-3,2.9
				c-0.9,0.9-1.8,1.8-2.7,2.7c-0.6,0.6-1.1,1.1-1.8,1.6c-0.3,0.2-0.8,0.3-1.1,0.5c-0.5,0.3-1.1,0.4-1.7,0.3
				c-0.7-0.1-1.4-0.3-2.1-0.7c-0.9-0.6-1.7-1.3-2.5-2.1c-0.7-0.8-1.6-1.5-2.3-2.2c-0.7-0.7-1.3-1.4-2-2c-0.5-0.4-1-0.8-1.4-1.3
				c-0.3-0.3-0.6-0.6-0.9-0.9c-0.4-0.4-0.9-0.9-1.4-1.3c-0.3-0.3-0.7-0.7-1-1c-0.1-0.1-0.3-0.2-0.4-0.4c-0.4-0.4-0.7-0.8-1.1-1.1
				c-0.3-0.3-0.7-0.6-1-0.9c-0.4-0.4-0.8-0.9-1.3-1.4s-0.9-0.8-1.4-1.3c-0.3-0.3-0.6-0.6-0.8-0.9c-0.3-0.3-0.7-0.6-1-1
				c-0.2-0.2-0.4-0.3-0.5-0.5c-0.1-0.2,0-0.4,0.3-0.4c0.6,0,1.3-0.1,1.9-0.1c0.2,0,0.4-0.1,0.5-0.3c0.1-0.4,1.2-0.7,1.5-0.4
				c0.3,0,0.5,0,0.8-0.1c0.2,0,0.4-0.1,0.6-0.1c-0.1-0.2-0.1-0.4-0.2-0.6c-0.3-0.4-0.6-0.9-0.9-1.3c-0.1-0.2,0.1-0.6,0.4-0.6
				c0.4,0,0.9-0.2,1.3,0.2c0.1,0.1,0.4,0,0.4-0.1c0.1-0.1,0.1-0.4,0-0.5c-0.4-0.4-0.9-0.8-1.3-1.2c-0.4-0.5-1-0.8-1.6-1.2
				c-0.1-0.1-0.2-0.3-0.4-0.4c-0.2-0.1-0.5-0.2-0.7-0.3c-0.5-0.1-0.7-0.6-0.9-0.9c-0.2-0.3-0.4-0.7-0.6-1.1
				c-0.3-0.5-0.7-0.8-1.1-1.2c-0.1-0.1-0.2-0.3-0.3-0.5c-0.3-0.3-0.4-0.3-0.5,0.2c-0.1,0.4-0.4,0.5-0.7,0.3
				c-0.2-0.2-0.5-0.4-0.7-0.5c-0.2-0.1-0.4-0.1-0.6-0.2c-0.2,0-0.4,0-0.5,0c-0.2,0-0.5,0-0.6,0.2c-0.2,0.2-0.4,0.5-0.1,0.9
				c0.1,0.2,0.1,0.5,0.2,0.7l0.4,1.7c0,0.1,0.1,0.1,0,0.2c-0.2,0.5,0.1,0.5,0.5,0.6c0.3,0.1,0.6,0.3,0.9,0.5
				c0.1,0.1,0.3,0.2,0.5,0.3c0.4,0.3,0.9,0.3,1.1,0.7c0.2,0.4,0.2,1.2-0.1,1.6c-0.2,0.3-0.4,0.6-0.6,0.9c-0.2,0.3-0.3,0.5-0.5,0.8
				c-0.2,0.2-0.4,0.2-0.6,0c-0.6-0.6-1.2-1.2-1.7-1.8c-0.4-0.5-0.9-1-1.3-1.5c-0.4-0.5-0.9-1-1.4-1.5c-0.4-0.4-0.8-0.8-1.2-1.2
				c-0.3-0.4-0.6-0.8-0.9-1.2c-0.2-0.2-0.4-0.4-0.7-0.6c-0.2-0.1-0.4-0.2-0.5-0.3c-0.8-0.7-1.6-1.4-2.3-2.2c-0.5-0.5-0.9-1-1.4-1.5
				c-0.8-0.8-1.5-1.5-2.3-2.3l-2.2-2.2c-0.6-0.6-1.2-1.2-1.8-1.8c-0.5-0.5-1.1-1.1-1.6-1.6c-0.7-0.7-1.4-1.3-2-2
				c-0.7-0.8-1.6-1.4-2-2.5c-0.3-0.8-0.6-1.5-0.5-2.4c0.1-0.6,0.3-1.1,0.5-1.6c0.4-1,1.3-1.7,2.1-2.5c0.9-0.9,1.8-1.9,2.8-2.8
				c0.5-0.5,1-0.9,1.5-1.4c0.3-0.3,0.6-0.6,0.9-0.9c1.2-1.2,2.4-2.4,3.6-3.6c0.6-0.5,1.1-1,1.7-1.5c0.4-0.3,0.9-0.6,1.3-0.9
				c0.4-0.3,0.9-0.6,1.5-0.8c0.3-0.1,0.6-0.4,0.8-0.6c0,0,0-0.1,0.1-0.1c0.1-0.1,0.3-0.1,0.5-0.2c0.1-0.1,0.2-0.3,0.4-0.4l0.4,0.2
				c-0.4,0.5-0.9,1-1.3,1.6c-0.1,0.2-0.2,0.4-0.3,0.6c-0.1,0.2,0.3,0.3,0.5,0.2c0.4-0.2,0.7-0.4,1.1-0.6c0.1-0.1,0.3-0.1,0.5-0.1
				c0.1,0,0.2-0.1,0.3-0.1c0.1,0,0.2-0.1,0.3-0.1c0,0.2,0.1,0.3,0,0.5c0,0.1-0.1,0.1-0.2,0.2c-0.6,0.4-1,0.9-1.4,1.4
				c-0.3,0.4-0.5,0.7-0.8,1.1c-0.1,0.2-0.3,0.3-0.4,0.4c-0.1,0.1-0.2,0.3-0.1,0.4c0,0.1,0.2,0.2,0.4,0.2c0.6-0.1,1.3-0.2,1.8-0.6
				c0.2-0.1,0.4-0.2,0.5-0.3c0.3-0.2,0.7-0.5,1-0.7c0.3-0.2,0.6-0.4,0.9-0.5c0.2-0.1,0.5-0.3,0.7-0.3c0.5-0.1,0.8-0.3,1.2-0.6
				c0.3-0.2,0.7-0.3,1.1-0.5c0.3-0.1,0.5-0.2,0.8-0.3c0.5-0.2,0.9-0.3,1.4-0.5c0.3-0.1,0.4,0,0.4,0.3c0.1,0.4,0.2,0.5,0.6,0.4
				c0.4-0.1,0.7,0,0.9,0.3c0.1,0.2,0.2,0.3,0.4,0.4c0.1,0,0.2,0,0.3,0c0-0.2,0-0.4-0.1-0.6c-0.1-0.2-0.4-0.4-0.6-0.6
				c0.1-0.1,0.1-0.1,0.1-0.1c0.5-0.2,1-0.3,1.5-0.5c0.3-0.1,0.5-0.3,0.8-0.5c0.4-0.3,0.3-0.8-0.2-1.2c-0.1-0.1-0.3-0.3-0.5-0.4
				c-0.2-0.1-0.5,0-0.7,0c-0.1,0-0.2,0.1-0.3,0.2c-0.5,0.5-1.1,0.3-1.7,0.3c-0.1,0-0.2-0.2-0.2-0.3c0-0.3,0.1-0.6,0.1-0.9
				c0.1-0.5-0.1-0.7-0.6-0.7c-0.5,0.1-0.9,0.2-1.2,0.5c-0.1,0.1-0.3,0.2-0.4,0.2c-0.3,0-0.5,0.1-0.7,0.4c-0.2,0.2-0.5,0.4-0.8,0.4
				c-0.4,0.1-0.7,0.4-1,0.7c-0.2,0.2-0.6,0.4-0.9,0.6c-0.3,0.2-0.8,0.2-1.1,0.6c-0.1,0.1-0.3,0.1-0.5,0.1c-0.1,0-0.2-0.2-0.2-0.3
				c-0.1-0.4,0-0.9,0.2-1.3c0.2-0.3,0.1-0.8,0.2-1.2c0,0-0.2-0.2-0.2-0.1c-0.2,0.1-0.5,0.2-0.7,0.4c-0.3,0.2-0.6,0.2-0.9,0.2
				c-0.3,0-0.5,0-0.6,0.3c-0.1,0.4-0.4,0.5-0.9,0.3c0,0,0-0.1,0-0.1c0.4-0.4,0.7-0.9,1.1-1.3c0.7-0.8,1.4-1.5,2.2-2.2
				c0.9-0.9,1.7-1.7,2.6-2.5c0.3-0.2,0.6-0.4,0.9-0.7c0.5-0.6,1-1.2,1.6-1.7c0.3-0.3,0.6-0.5,0.8-0.8c0.2-0.2,0.4-0.5,0.8,0
				c0.1-0.1,0.1-0.2,0.1-0.2c-0.1-0.4,0.1-0.7,0.3-0.9c0.4-0.5,0.9-0.9,1.3-1.3c0.6-0.6,1.2-1.2,1.8-1.8c0.4-0.4,0.9-0.7,1.3-1
				c0.3-0.3,0.7-0.6,1-0.9c0.5-0.4,0.9-0.9,1.4-1.4c0.1-0.2,0.3-0.3,0.5-0.5c0.2-0.1,0.4-0.2,0.6-0.4c0.1,0,0.2-0.1,0.2-0.1
				c0.3-1,1.1-1.6,1.7-2.3c1-1.2,2.1-2.2,3.2-3.3c0.9-0.9,1.9-1.8,2.8-2.8c0.6-0.7,1.3-1.3,2.1-1.9c0.3-0.2,0.5-0.3,0.8-0.4
				c0.7-0.2,1.4-0.3,2.1-0.4c0.8,0,1.1,0.4,1.1,1.2c0,0.5-0.1,0.9-0.1,1.4c0,0.1,0.1,0.2,0.1,0.3c0,0.4,0.1,0.8-0.2,1.1
				c0,0,0,0.1,0,0.2c-0.1,1.9-0.1,3.8,0,5.8c0,0.3,0,0.6,0,1c0,0.1,0,0.3,0,0.3c0.3,0,0.5,0,0.8,0c0.3,0,0.4-0.2,0.3-0.5
				c-0.1-0.2-0.3-0.5-0.1-0.8c0,0-0.1-0.1-0.1-0.1c-0.1,0.1-0.1,0.1-0.1,0.2c0,0.2,0,0.4-0.1,0.6c0,0.1-0.1,0.1-0.2,0.2
				c-0.1-0.1-0.1-0.1-0.2-0.2c-0.2-0.6,0-1.1,0.1-1.7c0-0.1,0-0.1,0.1-0.1c0.7-0.3,1.1-1.1,1.9-1.3c0.2-0.1,0.4-0.2,0.3-0.4
				c-0.1-0.1-0.3-0.3-0.5-0.3c-0.3,0.1-0.6,0.2-0.8-0.2c-0.2-0.2-0.4-0.4-0.4-0.8c0-0.4-0.1-0.8-0.2-1.2c0-0.4-0.1-0.8-0.1-1.2
				c0-0.5,0-1.1,0.1-1.6c0-0.4,0.4-0.7,0.8-0.6c0.2,0.1,0.4,0.2,0.6,0.3c1.1,1.1,2.1,2.1,3.1,3.2c0.5,0.5,1,1,1.5,1.5
				c0.3,0.3,0.6,0.5,0.7,1c0.1,0.2,0.4,0.3,0.6,0.4c0,0-0.1,0.1-0.1,0.2c-0.2,0.2-0.1,0.3,0.1,0.4c0.2,0.1,0.4,0.3,0.5,0.5
				c0.1,0.1,0.2,0.1,0.3,0.2c0.4,0,0.6,0.1,0.9,0.4c0.9,0.9,1.9,1.9,2.9,2.8c1.1,1.1,2.4,2.2,3.3,3.6c0.4,0.6,0.8,1,1.2,1.5
				c0.2,0.2,0.5,0.4,0.7,0.6c0.6,0.6,1.2,1.2,1.8,1.8c0,0,0.1,0.1,0.1,0.1c0.4,0.3,0.9,0.7,1.4,1c0.5,0.4,1,0.8,1.5,1.3
				c0.8,0.8,1.5,1.5,2.3,2.3c0.3,0.3,0.6,0.6,0.6,1.1c0,0.1,0.2,0.2,0.3,0.2c0.6,0,1,0.5,1.4,0.9c0.7,0.7,1.4,1.4,2.1,2.1
				c1,1,2,2,2.9,2.9c0.7,0.7,1.3,1.4,2,2.1c0.4,0.4,0.8,0.7,1.1,1.1c0.8,1.1,2,1.8,2.9,2.7c0.8,0.8,1.6,1.6,2.4,2.4
				c1,1,1.9,1.9,2.9,2.9c0.6,0.6,1.2,1.3,1.8,2c0.2,0.3,0.4,0.6,0.5,0.9c0.1,0.2,0.1,0.5-0.3,0.5c-0.1,0-0.2,0.1-0.3,0.2
				c0.1,0.1,0.2,0.2,0.3,0.2c0.7,0.3,1,0.8,0.6,1.5c0,0.1-0.1,0.2-0.1,0.3c-0.2,0.5-0.3,1-0.5,1.4c-0.3,0.5-0.7,1-1.2,1.4
				c-0.7,0.8-1.5,1.6-2.2,2.3c-0.5,0.5-1,1-1.5,1.5c-0.2,0.2-0.5,0.2-0.6-0.2c-0.1-0.1-0.1-0.3-0.2-0.4c-0.1,0-0.4,0-0.4,0.1
				c-0.1,0.2-0.1,0.5,0.2,0.6c0.5,0.2,0.5,0.3,0.2,0.7c-0.6,0.7-1.3,1.3-1.9,2c-0.5,0.5-0.9,1-1.4,1.4c-0.6,0.6-1.3,1.2-2,1.9
				c-0.6,0.6-1.2,1.2-1.8,1.8c-0.4,0.4-0.8,0.7-1.1,1.1c-0.2,0.2-0.3,0.4-0.5,0.6c-0.5,0.6-1,1.1-1.5,1.6c-0.3,0.3-0.5,0.7-0.8,1
				c-0.2,0.2-0.5,0.5-0.7,0.7c-0.3,0.2-0.6,0.2-0.9-0.1c-0.2-0.2-0.5-0.3-0.7-0.5C258.5,67.7,258.4,67.8,258.4,67.7L258.4,67.7
				L258.4,67.7L258.4,67.7z M215.5,35.4c0.1,0.6,0.2,1.1-0.1,1.6c-0.1,0-0.3,0-0.4,0c-0.1,0-0.2,0.1-0.2,0.2c0,0.1,0.1,0.3,0.2,0.3
				c0.3,0,0.5,0.1,0.7,0.4c0.3,0.3,0.3,0.6,0.1,1c-0.1,0.2-0.2,0.4-0.2,0.6c0,0.9,0,1.8,0,2.7c0,0.3,0.3,0.6,0.6,0.6
				c0.7,0.1,1.4,0.2,2.1,0.2c0.2,0,0.4,0.2,0.6,0.2c0.5,0,0.9,0,1.4,0c0.1,0,0.2,0,0.3-0.1c0.4-0.2,0.7-0.5,1-0.7
				c0.3-0.2,0.6-0.5,0.5-1c0-0.1,0-0.3,0-0.4c0.1-0.3,0.2-0.6,0.4-0.9c0.1-0.3,0.3-0.5,0.5-0.7c0.3-0.3,0.6-0.6,1-0.9
				s0.8-0.5,1.2-0.6c0.7-0.1,1.4,0,2.1,0c2.3,0,4.7-0.1,7-0.1c0.6,0,0.9,0.6,0.6,1.2c-0.2,0.4-0.6,0.7-0.8,1
				c-0.1,0.1-0.2,0.2-0.3,0.3c-0.1,0.2-0.3,0.5-0.4,0.5c-0.3,0.2-0.4,0.7-0.9,0.7c0,0-0.1,0.2-0.1,0.3c0,0.2-0.1,0.4-0.2,0.5
				c-0.3,0.3-0.7,0.5-0.8,1c0,0-0.1,0.1-0.1,0.1c-0.3,0.3-0.6,0.7-0.8,1.1c-0.2,0.3-0.5,0.7-0.8,1c-0.2,0.2-0.5,0.5-0.5,0.7
				c-0.1,0.3-0.1,0.6-0.4,0.9c-0.3,0.3-0.5,0.7-1,0.6c-0.1,0-0.4,0.1-0.4,0.2c-0.1,0.3-0.2,0.3-0.4,0.3c-0.2,0-0.3,0-0.5,0.1
				c0.1,0.3,0.1,0.6,0.2,0.7c0.4,0.3,0.3,0.6,0.2,0.9c-0.1,0.3-0.4,0.5-0.6,0.7c-0.1,0-0.1,0.1-0.1,0.2c0,0.4-0.1,0.7-0.4,0.9
				c-0.3,0.2-0.5,0.5-0.5,0.9c0,0.3-0.1,0.7-0.5,0.8c-0.1,0-0.1,0.5-0.1,0.5c0.4,0.1,0.2,0.5,0.3,0.8c0,0.2-0.1,0.4-0.1,0.7
				c0,0.2-0.2,0.3-0.2,0.4c-0.1,0.5-0.1,1.1-0.2,1.7c-0.2,0.7-0.5,1.4-0.6,2.2c-0.1,0.8,0,1.7-0.3,2.5c-0.2,0.6,0,1.2,0.1,1.8
				c0.1,0.3,0.2,0.6,0.4,0.7c0.5,0.3,1,0.6,1.6,0.6c0.9,0,1.7,0,2.6,0c1,0,2,0.1,3,0.2c0.9,0.1,1.4-0.5,2.1-0.8
				c0.3-0.2,0.5-0.4,0.5-0.8c0,0,0,0,0-0.1c0.3-0.5,0.4-1.2,0.5-1.8c0.1-0.5,0.1-1.1,0.1-1.6s-0.1-1.2,0.3-1.6c0,0,0-0.1,0-0.2
				c0.1-0.8,0.3-1.5,0.4-2.3c0-0.2,0.2-0.3,0.4-0.2c0.1,0,0.1,0.1,0.2,0.1l0.1,0c-0.1-0.2-0.1-0.4-0.1-0.6c0-0.2,0-0.5,0-0.8
				c0-0.3,0.2-0.5,0.2-0.8c0-0.5,0-1,0-1.5c0-0.1,0.1-0.2,0.1-0.3c0.1-0.2,0.1-0.3,0.2-0.5s0.1-0.3,0.2-0.5c0.1-0.2,0.2-0.5,0.3-0.7
				c0-0.1,0-0.2,0.1-0.3c0.2-0.4,0.5-0.8,0.6-1.2c0.1-0.5,0.4-0.8,0.5-1.2c0.1-0.2,0.2-0.2,0.3-0.1c0.3,0.2,0.5,0.5,0.8,0.7
				c0.4,0.4,0.8,0.9,1.2,1.3c0.1,0.1,0.2,0.1,0.3,0.2c0.2,0.2,0.4,0.4,0.7,0.5l0.1-0.1c-0.2-0.4-0.2-0.9-0.5-1.2
				c-0.5-0.5-1-1-1.6-1.3c-0.5-0.3-0.6-0.6-0.6-1.2c0-0.2,0-0.6,0.1-0.7c0.4-0.2,0.3-0.6,0.4-0.9c0.1-0.1,0.1-0.2,0.2-0.3
				c0.2-0.3,0.6-0.6,0.5-1.1c0-0.2-0.1-0.4,0.2-0.4c0.1,0,0.1-0.2,0.1-0.2c0.1-0.1,0.1-0.3,0.1-0.4c0.3-0.4,0.6-0.9,0.9-1.3
				c0.1-0.1,0.1-0.2,0.2-0.3c0.2-0.3,0.5-0.6,0.8-1c0.2-0.2,0.2-0.6,0.4-0.8c0.4-0.5,0.8-0.9,1.2-1.4c0.2-0.2,0.4-0.5,0.6-0.8
				c0.1-0.1,0.1-0.1,0.2-0.2c0.2-0.1,0.4-0.3,0.5-0.4c0.1-0.3,0.4-0.4,0.6-0.6c0.2-0.2,0.4-0.4,0.6-0.6c0.1-0.2,0.3-0.3,0.4-0.5
				c0.1-0.3,0.6-0.5,0.5-1c0,0,0.1,0,0.1-0.1c0.1-0.1,0.1-0.2,0.1-0.3c-0.1-1.1,0.3-2.2-0.3-3.3c0.1-0.5-0.3-0.7-0.5-1
				c-0.1-0.2-0.2-0.3-0.4-0.4c-0.5-0.3-1-0.4-1.6-0.4c-1.9,0-3.7,0-5.6,0.1h-2.2c-0.4,0-0.8,0-1.2-0.1c-0.2,0-0.3-0.1-0.1-0.3
				c-0.3,0-0.5-0.1-0.8,0.2c-0.1,0.1-0.2,0.1-0.3,0.1c-1.8,0-3.5,0-5.3,0c-0.6,0-1.3-0.2-1.9-0.2c-0.6,0-1.2,0-1.8,0
				c-0.4,0-0.6-0.3-0.5-0.6c0.1-0.6-0.3-1-0.9-0.9c-0.1,0-0.2,0.1-0.3,0.1c-0.2,0-0.5-0.1-0.6-0.2c-0.1-0.2,0-0.4,0.2-0.5
				c0.2-0.1,0.3-0.2,0.4-0.4c-0.1-0.1-0.3-0.2-0.4-0.3c-0.1-0.3-0.5-0.6-0.1-0.9c0,0,0,0,0-0.1c-0.1-0.4-0.1-0.8-0.2-1.1
				c-0.1-0.3-0.3-0.4-0.6-0.2c-0.3,0.2-0.6,0.4-0.9,0.5c-0.1,0-0.2,0-0.3,0c-0.1,0-0.2-0.1-0.4-0.2c-0.1-0.1-0.2-0.2-0.2-0.3
				c0.1-0.5-0.1-0.8-0.4-1.1c-0.2-0.2-0.4-0.4-0.6-0.4c-0.2,0.1-0.4,0.4-0.6,0.6c-0.2,0.2-0.2,0.5-0.4,0.6c-0.1,0.1-0.4,0.1-0.5,0.1
				c-0.4-0.5-0.6-0.1-0.8,0.2c-0.1,0.1-0.1,0.3-0.1,0.4c-0.1,0.1-0.1,0.2-0.2,0.2s-0.2,0-0.3,0.1c-0.2,0.5-0.7,0.3-1.1,0.3
				c-0.2,0-0.3-0.1-0.3-0.3c0.1-0.1,0.1-0.3,0.2-0.4c0.2-0.4,0.5-0.6,0.5-1.1c0-0.5-0.1-0.6-0.5-0.5c-0.7,0.1-1.4,0.3-2.1,0.5
				c-0.1,0-0.1,0.1-0.2,0.2c-0.1,0.3-0.3,0.6-0.4,1c-0.3,0.5-0.7,1.1-1,1.6c-0.2,0.3-0.3,0.7-0.5,1c-0.3,0.6-0.3,1,0.1,1.5
				c0.2,0.3,0.6,0.3,0.8,0c0.3-0.3,0.5-0.7,0.9-1c0.5-0.4,0.7-1,1-1.4c0.2-0.2,0.4-0.5,0.6-0.6c0.4-0.2,0.5,0.3,0.6,0.5
				c0.2,0.3-0.2,1-0.5,1c-0.5,0.1-0.7,0.2-0.8,0.8c0,0.1,0,0.3,0,0.4c0.1,0,0.3,0,0.4,0c0.2,0,0.5,0,0.6,0.1c0.1,0.1,0.1,0.4,0,0.6
				c-0.1,0.3-0.3,0.5-0.5,0.8c0.2,0.1,0.3,0.1,0.4,0.2c0.3,0.3,0.6,0.6,0.9,0.9c0,0,0,0,0,0.1c0,0.3,0,0.6-0.2,0.8
				c-0.1,0.1-0.1,0.5-0.1,0.6c0.1,0.1,0.4,0.1,0.6,0.1c0.1,0,0.2-0.1,0.3-0.2l0.1,0.1c-0.1,0.2-0.1,0.4-0.2,0.5
				c-0.2,0.2-0.2,0.6,0,0.8c0.1,0.2,0.2,0.3,0.2,0.5c0,0.4,0,0.8-0.1,1.1c0,0.1-0.1,0.2-0.1,0.2c-0.1,0.1-0.1,0.2-0.2,0.2
				c0,0.3,0,0.6-0.1,1L215.5,35.4L215.5,35.4L215.5,35.4L215.5,35.4z M263,37.4l-0.1-0.2c-0.2-0.2-0.4-0.4-0.6-0.6
				c-0.4-0.3-0.9-0.4-1.1-1c0,0-0.1,0-0.1-0.1c-0.5-0.3-1-0.5-1.5-0.8c-0.4-0.2-0.9-0.2-1.1-0.7c-0.1-0.2-0.2-0.3-0.4-0.4
				c-0.6-0.4-1.3-0.8-1.9-1.2c-0.2-0.1-0.3-0.2-0.5-0.3c-0.6-0.3-1.1-0.5-1.7-0.8c-0.1-0.1-0.2-0.3-0.3-0.4
				c-0.1-0.1-0.1-0.2-0.2-0.3c-0.2-0.2-0.1-0.5,0.1-0.6c0.1-0.1,0.1-0.1,0.2-0.2c0.5-0.6,0.8-1.2,1.4-1.8c0.3-0.3,0.5-0.7,0.1-1.2
				c-0.1-0.2-0.3-0.4-0.4-0.6c-0.3-0.6-0.6-1.1-0.9-1.7c-0.1-0.3-0.3-0.6-0.5-0.8c-0.5-0.4-1.1-0.8-1.8-0.8c-0.4,0-0.8-0.1-1.2-0.2
				c-0.3,0-0.6-0.2-0.8-0.2c-0.6,0-0.6,0.1-0.6,0.6c0,0.5,0,1.1,0,1.6c0,0.1,0.1,0.3,0.2,0.4c0.3,0.3,0.4,0.7,0.3,1.1
				c-0.1,0.6,0.1,1,0.4,1.5c0.3,0.4,0.8,0.8,1.1,1.1c0.1,0.1,0.2,0.3,0.4,0.4c0.3,0.3,0.5,0.6,0.8,0.9c0.3,0.3,0.5,0.7,0.8,0.9
				c0.3,0.2,0.5,0.5,0.7,0.7c0.4,0.6,0.8,1.1,1.2,1.7c0.3,0.3,0.4,0.8,0.9,1c0.1,0,0.1,0.1,0.1,0.2c0.2,0.2,0.3,0.5,0.5,0.7
				c0.3,0.4,0.7,0.8,1,1.2c0.3,0.4,0.6,0.8,0.9,1.2c0.3,0.4,0.7,0.7,1,1.1c0.3,0.4,0.5,0.8,0.8,1.1s0.6,0.7,0.9,1
				c0.3,0.4,0.7,0.7,1,1.1c0.3,0.4,0.6,0.8,0.9,1.1c0.4,0.3,0.7,0.7,1,1.1c0.3,0.4,0.6,0.9,0.9,1.3c0.3,0.4,0.8,0.4,1.2,0.4
				c1.1,0,2.3,0,3.4,0c0.1,0,0.2,0.1,0.3,0.1c0.4,0,0.7,0,1,0c0.1,0,0.2,0,0.3,0c0.2,0,0.4,0.1,0.5,0.1c0.9,0,1.7,0.1,2.6,0.1
				c0.9,0,1.8,0,2.7,0c0.1,0,0.2-0.1,0.3-0.2c-0.1-0.1-0.2-0.2-0.3-0.3c-0.4-0.2-0.8-0.3-1.1-0.5c-0.3-0.3-0.9-0.3-1.1-0.8
				c0,0-0.2-0.1-0.2-0.1c-0.4,0-0.6-0.2-0.8-0.5c-0.1-0.2-0.2-0.3-0.4-0.4c-0.2-0.1-0.5-0.2-0.7-0.3c-0.4-0.2-0.7-0.1-1,0.3
				c-0.1,0.1-0.2,0.1-0.3,0.1c-0.2,0-0.4,0-0.6-0.1c0.2-0.1,0.4-0.2,0.6-0.3c0.2-0.1,0.3-0.3,0.4-0.5c0-0.1-0.2-0.2-0.4-0.3
				c-0.1-0.1-0.2-0.1-0.3-0.2c-0.3-0.3-0.6-0.6-1.1-0.5c-0.1,0-0.3-0.1-0.3-0.2c-0.2-0.3-0.4-0.3-0.7-0.2c-0.2,0.1-0.4,0.2-0.5-0.1
				c-0.1-0.3-0.2-0.3-0.5-0.3c-0.4,0-0.4-0.2-0.4-0.5c0-0.2,0-0.4,0-0.6c-0.5,0-0.5,0-0.7-0.3c-0.1-0.2-0.3-0.4-0.5-0.6
				c-0.4-0.4-1-0.7-1.1-1.3c0-0.2-0.2-0.3-0.2-0.5c0-0.1-0.1-0.3,0-0.4c0.3-0.6,1.4-0.7,1.9-0.2c0.2,0.2,0.4,0.3,0.7,0.2
				c0.2-0.2,0.3-0.5,0.1-0.8c-0.2-0.2-0.5-0.4-0.7-0.4c-0.5,0-0.8-0.2-1.1-0.5c-0.1-0.1-0.4-0.1-0.6-0.1c0,0.2-0.1,0.3-0.1,0.5
				c0.1,0.4-0.2,0.6-0.3,1c-0.3-0.3-0.6-0.3-0.9-0.1C263.7,36.9,263.3,37.2,263,37.4L263,37.4L263,37.4L263,37.4z M243.1,80.8
				c0.2-0.2,0.4-0.3,0.6-0.4c0.4-0.4,0.7-0.9,1.1-1.3c0.3-0.3,0.8-0.6,1-0.9c0.3-0.5,0.8-0.8,1.2-1.2c0.2-0.2,0.4-0.4,0.7-0.6
				c0.5-0.4,0.7-1,0.6-1.7c-0.2-0.7-0.3-1.4-0.4-2.1c0-0.2,0-0.3,0-0.4c-0.4-0.7-0.2-1.4-0.3-2.1c-0.1-0.6,0.2-1.1,0.6-1.4
				c0.3-0.2,0.2-0.4,0.1-0.6c-0.3-0.3-0.6-0.5-1-0.7c-0.2-0.1-0.3-0.1-0.4,0.1c-0.1,0.3-0.3,0.6-0.5,0.9c-0.2,0.3-0.4,0.7-0.7,1
				c-0.2,0.3-0.5,0.7-0.8,1c-0.4,0.3-0.7,0.2-0.7-0.3c0-0.5,0.2-1,0.4-1.5c0,0,0.1-0.1,0.1-0.1c0.2-0.2,0.5-0.4,0.8-0.7
				c0.4-0.4,0.8-0.8,1.2-1.3c0.2-0.2,0.4-0.4,0.5-0.5c0.2,0,0.4,0,0.5-0.2c0.1-0.2,0.3-0.3,0.4-0.5c0.5-0.5,1-1.1,1.5-1.6
				c0.4-0.4,0.7-0.8,1-1.2c0.1-0.1,0-0.4,0-0.6c-0.1,0-0.4,0-0.4,0c-0.3,0.3-0.7,0.2-1,0.2c-0.5,0-1,0-1.5,0.1
				c-0.1,0-0.2,0.1-0.3,0.1c-0.2,0.1-0.4,0.2-0.6,0.2c-0.4,0.1-0.9,0-1.4,0.1c-0.1,0-0.3,0.1-0.4,0.2c-0.1,0.3-0.1,0.6,0.2,0.8
				c0.3,0.3,0.6,0.6,0.8,1c0.3,0.4,0.1,0.6-0.3,0.6H245c0,0.2,0,0.5-0.1,0.6c-0.1,0.1-0.4,0.1-0.6,0.2c-0.1,0-0.1,0-0.2,0
				c-0.3,0-0.6,0.1-0.8,0.1c0.3,0.7,1,0.5,1.4,0.8c0,0.1,0,0.1,0,0.1c0,0-0.1,0.1-0.1,0.1c-0.5,0.2-0.8,0.6-0.7,1.1
				c0.1,0.8-0.5,1.1-0.9,1.6c-0.3,0.4-0.7,0.8-1.1,1.2c-0.1,0.1-0.1,0.2-0.2,0.2c-0.5,0.2-0.8,0.7-1.2,1.1c0.2,0.1,0.3,0.2,0.5,0.2
				c0.4,0,0.9,0,1.4,0c0.5,0,0.8,0.3,0.6,0.8c-0.1,0.3-0.4,0.7-0.5,1c-0.1,0.2-0.1,0.5-0.1,0.7c0,0.1,0.4,0.1,0.6,0.2
				c0.6,0.1,1.1,0.1,1.7,0.3c0.5,0.1,0.5,0.3,0.2,0.8c-0.1,0.1-0.1,0.3-0.2,0.4c-0.1,0.1-0.1,0.3-0.1,0.4c-0.2,0.4-0.6,0.8-0.6,1.3
				c0,0.1-0.1,0.1-0.1,0.2c-0.1,0.2-0.2,0.4-0.3,0.6c-0.1,0.1-0.1,0.3-0.2,0.4C243,80.2,243,80.5,243.1,80.8
				C243.1,80.9,243.1,80.9,243.1,80.8z M259.1,63.2l-0.1-0.1c0-1-0.1-2-0.1-3c0-0.4-0.3-0.5-0.4-0.7c0,0-0.2,0-0.2,0
				c-0.1,0.2-0.3,0.2-0.5,0.3c-0.2,0.1-0.5,0.2-0.7,0.4c-0.2,0.2-0.4,0.3-0.6,0.2c-0.1,0-0.2-0.3-0.2-0.5c0-0.9,0-1.7,0-2.6
				c0-0.2,0-0.3,0-0.5c0-0.1-0.2-0.2-0.3-0.2c-0.3,0.2-0.6,0.4-0.8,0.6c-0.3,0.4-0.6,0.8-0.9,1.2c-0.4,0.6-1,1.1-1.5,1.6
				c-0.3,0.3-0.3,0.6-0.1,0.9c0.1,0.2,0.2,0.4,0.2,0.6c0,0.1-0.1,0.3,0,0.5c0.1,0.2,0.1,0.4,0.3,0.6c0.2,0.1,0.3,0,0.5-0.2
				c0.2-0.3,0.7-0.1,0.9,0.2c0.1,0.2,0.2,0.4,0,0.6c-0.1,0.1,0,0.3,0.1,0.5c0,0.1,0.1,0.2,0.2,0.3c0.1,0.2,0.2,0.4,0.3,0.4
				c0.3,0.2,0.5,0.1,0.8-0.1c0.3-0.2,0.6-0.4,0.9-0.5c0.5-0.2,1.1-0.3,1.6-0.5c0.1,0,0.2-0.1,0.2-0.1c0.1,0,0.2,0,0.3,0
				c0,0.1,0,0.3,0,0.3c-0.3,0.2-0.5,0.4-0.8,0.5c-0.6,0.3-1.2,0.6-1.8,0.9c-0.1,0.1-0.2,0.2-0.2,0.4c0,0.1,0.2,0.2,0.3,0.2
				c0.4,0,0.7,0,1,0.1c0.2,0,0.5,0.1,0.7,0.1c0.2,0.1,0.5,0.2,0.7,0.2c0.3,0.1,0.5,0.1,0.7,0.1c0.3-0.3,0.7-0.7,1-1
				c0.4-0.5,0.9-0.8,1.5-1c0.3-0.1,0.5-0.2,0.5-0.6c0.1-0.6,0.5-1,0.9-1.3c0.4-0.3,0.9-0.6,1.4-0.9l0-0.2c-0.2,0-0.3-0.1-0.5-0.1
				c-0.5-0.1-1,0.3-1.4,0.5c-0.5,0.2-0.9,0.4-1.4,0.6c-0.4,0.2-0.8,0.3-1.2,0.5L259.1,63.2L259.1,63.2L259.1,63.2L259.1,63.2z
				 M234.7,75.7L234.7,75.7c-0.2,0-0.4,0-0.4,0.1c-0.3,0.5-0.5,1.1-0.4,1.7c0,0.1,0.2,0.3,0.3,0.3c0.4,0,1.1-0.6,1.3-0.9
				c0.1-0.4,0.3-0.7,0.8-0.9c0.1,0,0.2-0.1,0.2-0.2c0.3-0.3,0.5-0.6,0.8-0.9c0.1-0.1,0.1-0.3,0.2-0.3c0.5-0.3,0.9-0.6,1.2-1.2
				c0.1-0.1,0.2-0.2,0.4-0.2c0.4-0.1,0.7-0.4,0.7-0.9c0-0.6,0.1-1.2,0.6-1.7c0.1-0.2,0.1-0.5,0.1-0.8c0-0.2-0.2-0.3-0.4-0.2
				c-0.4,0.3-0.8,0.6-1.1,0.8c-0.2,0.1-0.4,0.2-0.6,0.3c-0.4,0.2-0.7,0.5-1.1,0.8c-0.4,0.2-0.9,0.4-1.3,0.7
				c-0.6,0.3-1.4,0.6-1.5,1.5c0,0,0,0.1-0.1,0.1c-0.2,0.5,0,1,0.6,1.2c0.1,0,0.2,0.1,0.3,0.2c0.1,0.1,0.1,0.2,0.1,0.4
				c0,0.1-0.2,0.2-0.3,0.2C234.9,75.7,234.8,75.7,234.7,75.7L234.7,75.7L234.7,75.7z M229.7,20.1L229.7,20.1l0,0.7
				c0,0.2,0.1,0.4,0.3,0.5c0.3,0,0.4-0.2,0.4-0.4c0-0.3,0-0.6,0-0.9c0-0.2,0.1-0.3,0.3-0.4c0.3-0.1,0.6-0.3,0.8-0.5
				c0.5-0.4,0.7-1,0.8-1.6c0-0.2,0-0.4-0.2-0.5c-0.3-0.3-0.4-0.6-0.2-1c0.1-0.3,0.3-0.6,0-0.9c-0.2-0.2,0-0.3,0.2-0.3
				c0.4,0,0.4-0.2,0.3-0.5c0-0.1-0.1-0.3-0.2-0.4c0-0.1,0-0.3,0-0.4c0.2-0.4,0.5-0.8,0.7-1.2c0-0.1,0-0.2,0-0.2
				c-0.1,0-0.2-0.1-0.4,0c-0.2,0.1-0.4,0.2-0.6,0.3c-0.1,0.1-0.4,0.2-0.4,0.3c-0.2,0.5-0.7,0.6-1,0.9c-0.4,0.4-0.7,0.7-0.7,1.2
				c0,1.2,0.1,2.3-0.2,3.5C229.7,18.8,229.7,19.5,229.7,20.1L229.7,20.1L229.7,20.1L229.7,20.1z M219.4,77.3l-0.1-0.2
				c-0.1,0.1-0.2,0.2-0.3,0.4c-0.1,0.1-0.1,0.2-0.2,0.3c-0.1,0.2-0.1,0.3-0.1,0.5c0,0.3,0.1,0.7,0.2,1c0,0.1,0.1,0.3,0.1,0.4
				c0.4,0.6,0.9,1.3,1.4,1.9c0.4,0.6,0.9,1.1,1,1.9c0,0,0.1,0.1,0.1,0.1c0.3,0.5,0.5,0.9,0.8,1.4c0.2,0.3,0.3,0.6,0.5,0.9
				c0.1,0.1,0.2,0.2,0.4,0.2c0-0.1,0.1-0.3,0-0.4c-0.4-0.6-0.4-1.3-0.5-2c0-0.2-0.1-0.3-0.1-0.5c-0.2-0.7-0.4-1.4-0.6-2.1
				c-0.1-0.3-0.1-0.6-0.2-0.8c-0.1-0.2-0.4-0.3-0.1-0.6c0,0-0.1-0.1-0.1-0.2c-0.1-0.2-0.2-0.5-0.3-0.7c-0.1-0.3-0.1-0.7-0.5-0.9
				c-0.1-0.1-0.2-0.3-0.4-0.4c-0.1-0.1-0.2-0.2-0.3-0.2C220,77.3,219.7,77.3,219.4,77.3L219.4,77.3L219.4,77.3z M235.2,84.4l0.1-0.1
				c0-0.1,0-0.2,0-0.2c0.1-0.1,0.1-0.3,0.2-0.3c0.1,0,0.3,0.1,0.4,0.2c0.1,0.1,0.1,0.3,0.1,0.5c-0.1,0.7-0.4,1.4-0.9,2
				c-0.1,0.2-0.2,0.6-0.1,0.7c0.2,0.2,0.5,0.1,0.7-0.1c0.1-0.1,0.4-0.2,0.6-0.3c0.6-0.2,1.2-0.3,1.9-0.4c0.1,0,0.1,0,0.1-0.1
				c0.3-0.2,0.5-0.9,0.3-1.2c-0.3-0.6-0.4-1.2-0.3-1.8c0.1-0.6-0.4-0.8-0.9-0.5c-0.3,0.2-0.5,0.5-0.7,0.8c-0.1,0.2-0.3,0.3-0.4,0.2
				c-0.1-0.1-0.3-0.2-0.3-0.4c-0.1-0.3-0.3-0.4-0.6-0.4c-0.3-0.1-0.3,0.2-0.4,0.4c0,0.1-0.1,0.2-0.1,0.2c-0.2,0.1-0.4,0.3-0.3,0.6
				C234.8,84.1,235,84.2,235.2,84.4L235.2,84.4L235.2,84.4L235.2,84.4z M217.5,59.5l0-0.1c-0.3-0.2-0.5-0.4-0.8-0.5
				c-0.5-0.3-1-0.5-1.4-0.8c-0.4-0.3-0.8-0.7-1.1-1.1c-0.3-0.3-0.7-0.4-1.1-0.3c-0.1,0-0.2,0.3-0.3,0.5c-0.3,0.5,0,1,0.5,1.4
				c0.4,0.3,0.9,0.6,1.4,0.9c0.2,0.1,0.4,0.2,0.5,0.2c0.6,0,1.1,0,1.7,0C217.1,59.7,217.3,59.6,217.5,59.5L217.5,59.5L217.5,59.5z
				 M228.7,83.4c0-0.2,0.1-0.4,0.1-0.7c0.1-0.3,0-0.6-0.4-0.6c-0.1,0-0.2-0.1-0.2-0.1c-0.3-0.3-0.6-0.7-1-1
				c-0.4-0.3-0.9-0.6-1.3-0.9c-0.3-0.2-0.4-0.2-0.4,0.2c0,0.2-0.1,0.4-0.4,0.4c-0.1,0-0.2,0.2-0.2,0.2c0.3,0.6,0.4,1.3,1.1,1.7
				c0.1,0.1,0.1,0.2,0.2,0.2c0.1,0.1,0.2,0.2,0.4,0.3c0.5,0.3,1.1,0,1.6-0.1C228.3,83.1,228.5,83.1,228.7,83.4L228.7,83.4
				L228.7,83.4L228.7,83.4z M246.2,49.5l0.4-0.4c0.4,0.3,0.6,0.3,0.9-0.1c0.1-0.1,0.1-0.2,0.2-0.3c0.3-0.3,0.3-0.9,0-1.2
				c-0.2-0.2-0.2-0.4-0.4-0.6c-0.1-0.1-0.3-0.3-0.4-0.3c-0.3,0-0.5,0-0.8,0c-0.2,0-0.4,0.1-0.4,0.4c0,0.1-0.1,0.3-0.2,0.4
				c-0.4,0-0.4,0.3-0.5,0.6c0,0.2,0,0.3-0.1,0.5c-0.3,0.4,0.1,0.5,0.3,0.6c0.1,0,0.3,0,0.4,0C245.8,49,246.1,49,246.2,49.5
				L246.2,49.5L246.2,49.5z M220.7,16.4L220.7,16.4c0.3,0,0.5-0.1,0.7-0.2c0.3-0.2,0.6-0.5,1-0.8c0.4-0.2,0.5-0.8,1-0.8
				c0.1,0,0.1-0.1,0.2-0.2c0.1-0.3,0.2-0.6,0.3-0.9c0.3-0.7,0.8-1.2,0.8-1.9c0-0.1-0.1-0.2-0.1-0.3c-0.1,0.1-0.3,0.1-0.4,0.2
				c-0.2,0.2-0.4,0.5-0.5,0.7c-0.3,0.4-0.6,0.8-0.9,1.3c-0.3,0.4-0.6,0.9-0.9,1.3c-0.3,0.5-0.7,0.9-1.1,1.4
				C220.8,16.2,220.8,16.3,220.7,16.4L220.7,16.4L220.7,16.4L220.7,16.4z M200.8,36.6c-0.1-0.2-0.1-0.3-0.2-0.4c0,0-0.2,0-0.3,0.1
				c-0.4,0.3-0.8,0.6-1.3,0.8c-0.9,0.5-1.8,1-2.6,1.6c-0.2,0.2-0.2,0.2,0,0.3c0.1,0.1,0.3,0.1,0.4,0.1c0.7-0.1,1.4-0.3,2.2-0.5
				c0.1,0,0.1,0,0.2-0.1c0.4-0.3,0.8-0.5,1-1C200.3,37.2,200.6,36.9,200.8,36.6L200.8,36.6L200.8,36.6z M227.9,45.6l0.1,0
				c0-0.1,0.1-0.3,0-0.4c-0.2-0.4-0.5-0.7-0.8-1c-0.1-0.1-0.2-0.2-0.4-0.2c-0.4-0.1-0.9-0.1-1.3-0.1c-0.2,0-0.3,0-0.5,0
				c-0.2,0-0.5,0-0.6,0.1c-0.1,0.2,0,0.5,0.1,0.7c0.2,0.4,0.6,0.6,0.8,1.1c0.1,0.2,0.4,0.3,0.6,0.4c0.1,0,0.2,0,0.3-0.1
				c0.2-0.3,0.6-0.5,0.6-1c0-0.2,0.3-0.2,0.4,0C227.5,45.2,227.7,45.4,227.9,45.6L227.9,45.6L227.9,45.6z M258.6,53.2
				c-0.1,0-0.2,0-0.3,0c-0.4,0.1-0.8,0.2-1.2,0.2c-0.2,0-0.4,0-0.6,0c-0.5,0-0.9,0.3-0.9,0.9c0,0.2,0,0.5-0.1,0.7
				c0,0.3,0.1,0.6,0.3,0.7c0.3,0,0.6,0,0.8-0.2c0.4-0.3,0.8-0.6,1.1-1C258.1,54.2,258.7,54,258.6,53.2L258.6,53.2L258.6,53.2
				L258.6,53.2z M225.1,18.9c0-0.1-0.1-0.4-0.2-0.4c-0.2,0-0.4,0.1-0.5,0.2c-0.1,0.1-0.3,0.3-0.4,0.4c-0.2,0.3-0.6,0.6-0.6,1
				c0,0.4,0,0.8,0,1.2c0,0.2,0,0.4-0.2,0.6c-0.1,0.1-0.1,0.5-0.1,0.7c0.2,0,0.5,0,0.7-0.1c0.5-0.4,0.9-0.9,0.8-1.6
				c0-0.1,0-0.1,0-0.2C225.1,20.1,224.9,19.5,225.1,18.9L225.1,18.9L225.1,18.9z M241.9,11.5c0,0.3,0.1,0.5,0.4,0.5
				c0.1,0,0.2,0.1,0.2,0.2c0.1,0.1,0.2,0.3,0.3,0.4c0.2,0.1,0.5,0.1,0.8,0.1c0.1,0,0.1-0.2,0.1-0.3c0.1-0.3-0.1-0.4-0.4-0.5
				c-0.2-0.1-0.4-0.2-0.6-0.3c-0.1-0.1-0.3-0.1-0.3-0.2c-0.1-0.6-0.7-0.5-1-0.9c-0.1-0.2-0.5-0.3-0.7-0.3c-0.3-0.1-0.6,0-1,0
				c-0.3,0-0.3,0.1-0.2,0.3c0.1,0.1,0.2,0.2,0.3,0.3c0.2,0.1,0.4,0.2,0.4,0.5c0,0.1,0.1,0.2,0.2,0.2C241,11.5,241.4,11.5,241.9,11.5
				L241.9,11.5L241.9,11.5z M219.4,59.2L219.4,59.2c-0.1,0.4-0.1,0.7,0.2,0.9s0.7,0.2,1.1,0.2c0.3-0.1,0.6-0.3,0.6-0.7
				c0-0.3,0-0.6-0.4-0.7c-0.1,0-0.2-0.2-0.4-0.3c-0.1-0.1-0.2-0.3-0.3-0.3c-0.4-0.1-0.6-0.3-0.7-0.7c-0.1-0.2-0.5-0.4-0.7-0.2
				c-0.1,0.1,0,0.3,0.1,0.5C219.1,58.3,219.2,58.8,219.4,59.2L219.4,59.2L219.4,59.2z M247.1,24.8c0.1-0.2,0.1-0.3,0.2-0.5
				c0.1-0.2,0.2-0.3,0.2-0.5c0-0.1-0.2-0.2-0.3-0.2c-0.2,0-0.4,0-0.6,0c-0.1,0-0.2-0.2-0.4-0.3c0.1-0.1,0.2-0.3,0.3-0.3
				c0.3-0.1,0.4-0.3,0.3-0.6c-0.3-0.4-0.6-0.8-0.9-1.2c-0.1-0.1-0.2-0.1-0.4-0.1c-0.3,0-0.4,0.1-0.2,0.4c0.1,0.2,0.3,0.5,0.5,0.7
				c0.4,0.3,0.1,0.5,0,0.7c-0.2,0.2-0.4,0-0.5-0.1c-0.2-0.2-0.3-0.2-0.4,0c0.3,0.3,0.5,0.6,0.8,0.8c0,0,0.1,0.1,0.1,0.1
				c0.4,0.1,0.6,0.5,0.8,0.7C246.6,24.7,246.8,25,247.1,24.8L247.1,24.8L247.1,24.8z M243.7,21.7c-0.2-0.2-0.4-0.2-0.5-0.4
				c-0.2-0.5-0.4-0.8-0.9-1.1c-0.4-0.2-0.7-0.7-1-1c-0.4-0.4-0.7-0.8-1.3-0.8c-0.1,0-0.2-0.2-0.3-0.2c-0.1-0.1-0.3-0.1-0.4-0.1
				c0,0.1-0.1,0.3,0,0.4c0.2,0.5,0.7,0.8,1.1,1.1c0.7,0.6,1.4,1.2,2.2,1.8C243,21.5,243.2,21.9,243.7,21.7L243.7,21.7L243.7,21.7z
				 M248.6,58c-0.1-0.8-0.2-1-0.6-1.4c-0.5-0.5-0.9-1-1.4-1.5c-0.4-0.4-0.9-0.7-1.4-0.8c-0.1,0-0.2,0-0.2,0.1c0,0,0,0.1,0,0.1
				c0.4,0.4,0.8,0.9,1.2,1.3c0.4,0.5,0.9,0.9,1.4,1.4C247.9,57.5,248.2,57.8,248.6,58L248.6,58L248.6,58z M196.3,42.8h0.3
				c0.2,0,0.3-0.1,0.3-0.3c0-0.2-0.1-0.3-0.3-0.3c-0.8,0-1.6,0-2.4,0c-0.1,0-0.2,0.1-0.3,0.2c-0.1,0.3,0,0.8,0.3,0.9
				c0.4,0.2,0.9,0.3,1.3,0.3C195.9,43.5,196.2,43.2,196.3,42.8L196.3,42.8L196.3,42.8z M236.5,63.8l-0.2,0c0,0.1-0.1,0.3-0.1,0.4
				c-0.1,0.3,0,0.7-0.1,1c-0.1,0.4-0.4,0.8-0.6,1.2c-0.2,0.4,0.2,0.5,0.3,0.7c0,0.1,0.3,0,0.4-0.1c0.4-0.2,0.8-0.4,1.1-0.6
				c0.1,0,0.1-0.1,0.2-0.1c-0.1-0.2-0.2-0.4-0.1-0.6c0-0.3-0.1-0.4-0.4-0.4c-0.3,0-0.4-0.2-0.4-0.5
				C236.5,64.5,236.5,64.2,236.5,63.8L236.5,63.8L236.5,63.8L236.5,63.8z M244.2,52.4c-0.6-0.9-1.7-1.1-2.7-1.7c0,0.2,0,0.3,0,0.3
				c0.3,0.3,0.5,0.6,0.8,0.9c0.1,0.1,0.2,0.2,0.3,0.3c0.2,0.2,0.5,0.5,0.8,0.6c0.3,0.2,0.4,0.6,0.8,0.4
				C244.2,53.4,244.2,52.4,244.2,52.4z M237.5,57.7c0.3-0.5,0.4-0.5,0.9-0.7c0.5-0.1,0.6-0.4,0.2-0.8c-0.2-0.2-0.4-0.5-0.6-0.8
				c-0.1-0.1-0.3-0.2-0.5-0.2c-0.1,0-0.2,0.2-0.2,0.3c-0.1,0.3,0,0.7-0.1,1C236.9,57.1,237.2,57.4,237.5,57.7L237.5,57.7L237.5,57.7
				z M238.2,14.4c0.2,0.1,0.5,0.3,0.7,0.5c0.3,0.2,0.5,0.5,0.8,0.8c0.2,0.2,0.4,0.1,0.6-0.1c0.1-0.2,0.2-0.4,0.2-0.5
				c-0.1-0.6-0.5-0.8-1-0.9c0,0-0.1,0-0.1,0C238.9,13.8,238.7,13.8,238.2,14.4L238.2,14.4L238.2,14.4z M240.2,60.8l0.1-0.1
				c0-0.1,0-0.3-0.1-0.4c-0.2-0.3-0.4-0.6-0.4-1c0,0-0.2-0.1-0.2-0.1c-0.4,0-0.7-0.2-0.8-0.5c-0.1-0.3-0.6-0.5-0.9-0.5
				c-0.1,0-0.2,0.1-0.2,0.1c0,0,0,0.2,0.1,0.2c0.4,0.4,0.9,0.8,1.3,1.2c0.2,0.2,0.4,0.4,0.6,0.6C239.9,60.5,240,60.6,240.2,60.8
				L240.2,60.8L240.2,60.8z M261.4,57.1l1.3-0.7c0,0,0.1,0,0.1-0.1c0.2-0.3,0.3-0.6,0.5-0.9c-0.4-0.3-0.7-0.4-0.8,0
				c-0.1,0.3-0.3,0.4-0.5,0.4c-0.2,0-0.4,0-0.5,0.1c-0.1,0.1-0.4,0.2-0.4,0.2C261.3,56.6,261,57,261.4,57.1L261.4,57.1L261.4,57.1z
				 M235.3,5.5c0.5,0,0.7-0.4,0.5-0.8c-0.2-0.4-0.4-0.8-0.6-1.3c-0.1-0.2-0.5-0.3-0.5-0.1c-0.1,0.2-0.1,0.5-0.1,0.7
				c0.3,0.4,0.3,0.7,0.3,1.1C235,5.3,235.1,5.5,235.3,5.5L235.3,5.5L235.3,5.5z M218.2,19l0.1,0.1l2.1-2.3c-0.4-0.2-1.3,0.2-1.4,0.6
				c0,0.1-0.1,0.2-0.1,0.2C218.2,18,218.2,18.5,218.2,19L218.2,19L218.2,19z M210.8,33.2V33c-0.3,0-0.6-0.1-0.9-0.1
				c-0.1,0-0.3,0.1-0.4,0.2c-0.2,0.1-0.4,0.2-0.4,0.4c-0.1,0.2-0.2,0.3-0.4,0.4c-0.3,0.1-0.5,0.5-0.4,0.8c0,0.1,0.2,0.1,0.2,0.1
				c0.3-0.2,0.7-0.4,0.9-0.7c0.3-0.4,0.6-0.8,1.1-0.8C210.7,33.3,210.7,33.2,210.8,33.2L210.8,33.2L210.8,33.2z M242.2,63.7
				c0,0-0.1-0.2,0-0.3c0-0.1,0.1-0.2,0.2-0.3c0.1-0.1,0.2-0.2,0.2-0.2c0-0.2-0.1-0.4-0.2-0.6c-0.1-0.1-0.3,0-0.4,0
				c-0.1,0-0.1,0.2-0.1,0.3c0.3,0.4,0,0.6-0.3,0.8c-0.2,0.1-0.2,1,0,1.1c0.1,0,0.1,0,0.2,0C242.1,64.5,242.2,64.3,242.2,63.7
				L242.2,63.7L242.2,63.7z M269.3,57.5l-0.2-0.5c-0.1,0.1-0.2,0.1-0.3,0.2c-0.3,0.3-0.7,0.7-1,1c-0.1,0.1-0.4,0.3-0.1,0.6
				c0.2,0.2,0.5,0,0.7-0.2c0.1-0.2,0.3-0.3,0.4-0.4C269,58,269.2,57.7,269.3,57.5z M251.6,61.3c0.2-0.1,0.4-0.2,0.5-0.3
				c0.1-0.1-0.1-0.3-0.1-0.4c-0.3-0.3-0.7-0.5-1.1-0.8c0,0-0.2,0.2-0.2,0.2c0.1,0.2,0.2,0.5,0.4,0.7S251.4,61.1,251.6,61.3
				L251.6,61.3L251.6,61.3z M203.2,45.5c-0.5-0.7-1.3-1-1.9-0.7c0.1,0.1,0.2,0.2,0.4,0.3c0.2,0.1,0.5,0.2,0.5,0.5
				c0.1,0.3,0.3,0.3,0.6,0.2C202.9,45.7,203,45.6,203.2,45.5L203.2,45.5L203.2,45.5z M235.9,78.7l0,0.2c-0.1,0.1-0.2,0.2-0.3,0.2
				c-0.4-0.1-0.5,0.3-0.8,0.4c-0.1,0-0.1,0.2-0.1,0.4c0.1,0,0.2,0.1,0.3,0c0.3-0.1,0.6-0.2,0.9-0.3c0.2-0.1,0.6,0,0.5-0.4
				C236.3,79,236,78.8,235.9,78.7L235.9,78.7z M216.6,63.1c-0.3,0.2-0.7,0.2-0.9,0.4c-0.2,0.2-0.3,0.5-0.4,0.8
				c0,0.1,0.1,0.2,0.1,0.2c0,0,0.2,0,0.2-0.1c0.2-0.2,0.5-0.4,0.8-0.6C216.6,63.7,216.6,63.5,216.6,63.1L216.6,63.1L216.6,63.1z
				 M237.3,16.4c-0.3-0.4-0.6-0.9-0.9-1.3c-0.2-0.4-0.4-0.5-0.8-0.2c0.2,0.4,0.3,0.9,0.8,1c0.3,0.1,0.5,0.2,0.5,0.6c0,0,0,0,0.1,0.1
				L237.3,16.4L237.3,16.4L237.3,16.4z M235.9,12.6l0.1,0.1c0.1-0.2,0.3-0.3,0.3-0.5c0-0.3,0-0.7-0.1-1c-0.1-0.2-0.3-0.2-0.5,0
				c-0.1,0.1-0.1,0.3-0.1,0.4C235.8,12,235.9,12.3,235.9,12.6L235.9,12.6L235.9,12.6z M217.9,75.9c0.2,0.3,0.3,0.5,0.7,0.6
				c0.3,0,0.6,0.1,0.9,0.1C219.2,75.8,218.9,75.6,217.9,75.9L217.9,75.9L217.9,75.9z M212.5,21.4c-0.4-0.8-0.5-1-1.2-1.3
				c-0.1,0-0.2,0-0.3,0c0,0.1,0.1,0.2,0.1,0.2c0,0.1,0.1,0.1,0.1,0.1c0.2,0.4,0.6,0.6,0.9,0.9C212.3,21.5,212.4,21.4,212.5,21.4
				L212.5,21.4L212.5,21.4z M245.6,51.8c-0.1-0.1-0.1-0.2-0.2-0.2c-0.2-0.1-1,0-1.1,0.2c-0.1,0.1-0.1,0.2,0,0.3c0.2,0.2,1,0.2,1.2,0
				C245.5,52,245.5,51.9,245.6,51.8L245.6,51.8L245.6,51.8z M228.7,88.7c0.2-0.6,0.2-1.5,0-1.8C228.4,87.3,228.4,88.3,228.7,88.7z
				 M249.9,54.6l0-0.2c-0.3,0-0.6-0.1-0.9,0c-0.1,0-0.2,0.2-0.4,0.3c0.1,0.1,0.2,0.3,0.4,0.3C249.4,55.1,249.5,54.6,249.9,54.6
				L249.9,54.6L249.9,54.6z M237.8,16.3l-0.1,0.1c0,0.2,0,0.4,0.2,0.6c0.2,0.1,0.4,0.4,0.6,0.5c0.2,0.2,0.4,0.2,0.5,0.1L237.8,16.3
				L237.8,16.3z M201.3,52.8c-0.5,0.3-0.4,0.6-0.3,0.9c0,0.1,0.2,0.2,0.3,0.2c0.1,0,0.3-0.2,0.3-0.3
				C201.5,53.4,201.4,53.1,201.3,52.8L201.3,52.8L201.3,52.8z M242.7,83.1c-0.3,0.3-0.5,0.4-0.7,0.6c-0.1,0.1-0.1,0.1-0.1,0.2
				c0.1,0,0.2,0.1,0.2,0.1c0.2-0.1,0.5-0.3,0.7-0.5C242.9,83.5,242.8,83.3,242.7,83.1L242.7,83.1L242.7,83.1z M234.5,13.8
				c0-0.2,0.1-0.3,0.1-0.3c-0.2-0.3-0.5-0.5-0.7-0.8c0,0-0.2,0-0.2,0.1s0,0.2,0,0.2C233.9,13.3,234.2,13.5,234.5,13.8L234.5,13.8
				L234.5,13.8z M222.1,55l0.3-0.2c-0.1-0.1-0.1-0.2-0.2-0.3c-0.2-0.1-0.3-0.1-0.5-0.2c-0.1,0-0.2,0.1-0.3,0.1
				c0,0.1,0.1,0.2,0.1,0.3C221.7,54.9,221.8,54.9,222.1,55z M243.9,21.8c0,0.1-0.1,0.2-0.1,0.3c0,0.2,0.3,0.6,0.5,0.5
				c0.1,0,0.2-0.1,0.2-0.2C244.4,22.1,244.2,21.8,243.9,21.8L243.9,21.8L243.9,21.8z M266.5,60.6c-0.5-0.2-0.9-0.1-1,0.3
				c0,0.1,0.1,0.3,0.2,0.2C265.9,60.9,266.2,60.8,266.5,60.6z M216.4,20.8h0.1c0-0.3,0.1-0.6,0.1-1c0-0.1-0.1-0.1-0.1-0.2
				c-0.1,0.1-0.2,0.1-0.2,0.2C216.3,20.1,216.4,20.5,216.4,20.8L216.4,20.8L216.4,20.8z M239.2,62.5l0.3-0.3
				c-0.1-0.1-0.3-0.2-0.4-0.3c-0.1,0-0.2,0.2-0.3,0.2L239.2,62.5L239.2,62.5L239.2,62.5z M218.1,13.4L218.1,13.4l-0.6,0.5
				C218,14,218,13.6,218.1,13.4L218.1,13.4L218.1,13.4z M217.1,20.3l0.2,0l0.1-0.6c-0.1,0-0.2,0-0.2,0
				C217.2,20,217.1,20.2,217.1,20.3z M214.6,34.8L214.6,34.8c0.1-0.4,0-0.7-0.4-0.5L214.6,34.8z M240.2,50.8c-0.4,0-0.5,0-0.4,0.4
				L240.2,50.8z"/>
			<path class="st0" d="M199.3,30.2l0.9-0.8l0.2,0.3c-0.2,0.2-0.4,0.4-0.6,0.5C199.7,30.2,199.5,30.2,199.3,30.2L199.3,30.2
				L199.3,30.2z"/>
		</g>
	</g>
	<g id="f" class="st1">
		<g>
			<path class="st2" d="M257.9,68.1c0.1,0.2,0.1,0.4,0.2,0.7c0,0.2-0.1,0.3-0.3,0.2c-0.5-0.2-0.9-0.1-1.3,0.3
				c-0.2,0.2-0.5,0.2-0.7,0.3c-0.3,0.1-0.5,0.1-0.8,0.3c-0.2,0.2-0.6,0.3-0.9,0.4c-0.5,0.2-0.9,0.4-1.4,0.7c0,0,0,0,0,0
				c-0.3,0-0.5,0.2-0.4,0.5c0.1,0.3,0.2,0.5,0.4,0.7c0.2,0.3,0.6,0.2,0.9,0.4c0.2,0.2,0.4,0.4,0.7,0.6c0.2,0.2,0.4,0.6,0.2,0.8
				c-0.1,0.2-0.4,0.3-0.5,0.5c-0.2,0.2-0.4,0.4-0.6,0.5c-0.2,0.2-0.3,0.4-0.5,0.4c-0.4,0.1-0.4,0.6-0.9,0.6c-0.2,0-0.4,0.4-0.4,0.6
				c-0.1,0.3-0.2,0.5-0.4,0.7c-0.3,0.3-0.6,0.7-1,1c-0.6,0.6-1.2,1.1-1.7,1.7c-0.2,0.2-0.4,0.4-0.5,0.6c-0.1,0.1-0.1,0.1-0.2,0.2
				c-0.2,0.1-0.3,0.3-0.5,0.4c-0.1,0.1-0.2,0.2-0.3,0.3c-0.2,0.2-0.3,0.4-0.5,0.6c-0.1,0.1-0.2,0.1-0.3,0.2
				c-0.1-0.1-0.1-0.2-0.1-0.3c0-0.1,0-0.2,0.1-0.2c0.6-0.3,0.5-1.1,0.9-1.5c0.1-0.1,0.2-0.2,0.4-0.2c0.2,0,0.4-0.2,0.6-0.4
				c0.1-0.1,0.2-0.3,0.3-0.4l0.3,0.4l0.1,0c0-0.1-0.1-0.3-0.1-0.4c0-0.1,0-0.3,0-0.4c0.6-0.4,1-1.1,1.8-1.2c0.1,0,0.2-0.3,0.3-0.5
				c0-0.3,0-0.6,0-0.9c0-0.6-0.1-1.2,0.3-1.7c0.1-0.1,0-0.3-0.1-0.5c-0.2,0.1-0.4,0.1-0.5,0.2c-0.3,0.3-0.4,0.7-0.6,1.1
				c-0.3,0.7-0.6,1.4-1.3,1.8c-0.2,0.1-0.3,0.3-0.4,0.5c-0.3,0.3-0.6,0.6-0.9,0.9c-0.3,0.4-0.7,0.7-1,1.1c-0.3,0.3-0.7,0.6-1,0.9
				c-0.1,0.1-0.1,0.2-0.2,0.3c-0.2,0.4-0.4,0.8-0.6,1.2c-0.2,0.3-0.5,0.5-0.7,0.7c-0.1,0.1-0.2,0.2-0.2,0.3c0.1,0.5-0.2,0.9-0.6,1.2
				c-0.1,0.1-0.2,0.3-0.2,0.5c0,0.3,0,0.6-0.3,0.8c-0.2,0.1-0.3,0.4-0.4,0.5c-0.4,0.4-0.7,0.8-1.1,1.2c-1,1-2,1.9-3,2.9
				c-0.9,0.9-1.8,1.8-2.7,2.7c-0.6,0.6-1.1,1.1-1.8,1.6c-0.3,0.2-0.8,0.3-1.1,0.5c-0.5,0.3-1.1,0.4-1.7,0.3
				c-0.7-0.1-1.4-0.3-2.1-0.7c-0.9-0.6-1.7-1.3-2.5-2.1c-0.7-0.8-1.6-1.5-2.3-2.2c-0.7-0.7-1.3-1.4-2-2c-0.5-0.4-1-0.8-1.4-1.3
				c-0.3-0.3-0.6-0.6-0.9-0.9c-0.4-0.4-0.9-0.9-1.4-1.3c-0.3-0.3-0.7-0.7-1-1c-0.1-0.1-0.3-0.2-0.4-0.4c-0.4-0.4-0.7-0.8-1.1-1.1
				c-0.3-0.3-0.7-0.6-1-0.9c-0.4-0.4-0.8-0.9-1.3-1.4s-0.9-0.8-1.4-1.3c-0.3-0.3-0.6-0.6-0.8-0.9c-0.3-0.3-0.7-0.6-1-1
				c-0.2-0.2-0.4-0.3-0.5-0.5c-0.1-0.2,0-0.4,0.3-0.4c0.6,0,1.3-0.1,1.9-0.1c0.2,0,0.4-0.1,0.5-0.3c0.1-0.4,1.2-0.7,1.5-0.4
				c0.3,0,0.5,0,0.8-0.1c0.2,0,0.4-0.1,0.6-0.1c-0.1-0.2-0.1-0.4-0.2-0.6c-0.3-0.4-0.6-0.9-0.9-1.3c-0.1-0.2,0.1-0.6,0.4-0.6
				c0.4,0,0.9-0.2,1.3,0.2c0.1,0.1,0.4,0,0.4-0.1c0.1-0.1,0.1-0.4,0-0.5c-0.4-0.4-0.9-0.8-1.3-1.2c-0.4-0.5-1-0.8-1.6-1.2
				c-0.1-0.1-0.2-0.3-0.4-0.4c-0.2-0.1-0.5-0.2-0.7-0.3c-0.5-0.1-0.7-0.6-0.9-0.9c-0.2-0.3-0.4-0.7-0.6-1.1
				c-0.3-0.5-0.7-0.8-1.1-1.2c-0.1-0.1-0.2-0.3-0.3-0.5c-0.3-0.3-0.4-0.3-0.5,0.2c-0.1,0.4-0.4,0.5-0.7,0.3
				c-0.2-0.2-0.5-0.4-0.7-0.5c-0.2-0.1-0.4-0.1-0.6-0.2c-0.2,0-0.4,0-0.5,0c-0.2,0-0.5,0-0.6,0.2c-0.2,0.2-0.4,0.5-0.1,0.9
				c0.1,0.2,0.1,0.5,0.2,0.7l0.4,1.7c0,0.1,0.1,0.1,0,0.2c-0.2,0.5,0.1,0.5,0.5,0.6c0.3,0.1,0.6,0.3,0.9,0.5
				c0.1,0.1,0.3,0.2,0.5,0.3c0.4,0.3,0.9,0.3,1.1,0.7c0.2,0.4,0.2,1.2-0.1,1.6c-0.2,0.3-0.4,0.6-0.6,0.9c-0.2,0.3-0.3,0.5-0.5,0.8
				c-0.2,0.2-0.4,0.2-0.6,0c-0.6-0.6-1.2-1.2-1.7-1.8c-0.4-0.5-0.9-1-1.3-1.5c-0.4-0.5-0.9-1-1.4-1.5c-0.4-0.4-0.8-0.8-1.2-1.2
				c-0.3-0.4-0.6-0.8-0.9-1.2c-0.2-0.2-0.4-0.4-0.7-0.6c-0.2-0.1-0.4-0.2-0.5-0.3c-0.8-0.7-1.6-1.4-2.3-2.2c-0.5-0.5-0.9-1-1.4-1.5
				c-0.8-0.8-1.5-1.5-2.3-2.3l-2.2-2.2c-0.6-0.6-1.2-1.2-1.8-1.8c-0.5-0.5-1.1-1.1-1.6-1.6c-0.7-0.7-1.4-1.3-2-2
				c-0.7-0.8-1.6-1.4-2-2.5c-0.3-0.8-0.6-1.5-0.5-2.4c0.1-0.6,0.3-1.1,0.5-1.6c0.4-1,1.3-1.7,2.1-2.5c0.9-0.9,1.8-1.9,2.8-2.8
				c0.5-0.5,1-0.9,1.5-1.4c0.3-0.3,0.6-0.6,0.9-0.9c1.2-1.2,2.4-2.4,3.6-3.6c0.6-0.5,1.1-1,1.7-1.5c0.4-0.3,0.9-0.6,1.3-0.9
				c0.4-0.3,0.9-0.6,1.5-0.8c0.3-0.1,0.6-0.4,0.8-0.6c0,0,0-0.1,0.1-0.1c0.1-0.1,0.3-0.1,0.5-0.2c0.1-0.1,0.2-0.3,0.4-0.4l0.4,0.2
				c-0.4,0.5-0.9,1-1.3,1.6c-0.1,0.2-0.2,0.4-0.3,0.6c-0.1,0.2,0.3,0.3,0.5,0.2c0.4-0.2,0.7-0.4,1.1-0.6c0.1-0.1,0.3-0.1,0.5-0.1
				c0.1,0,0.2-0.1,0.3-0.1c0.1,0,0.2-0.1,0.3-0.1c0,0.2,0.1,0.3,0,0.5c0,0.1-0.1,0.2-0.2,0.2c-0.6,0.4-1,0.9-1.4,1.4
				c-0.3,0.4-0.5,0.7-0.8,1.1c-0.1,0.2-0.3,0.3-0.4,0.4c-0.1,0.1-0.2,0.3-0.1,0.4c0,0.1,0.2,0.2,0.4,0.2c0.6-0.1,1.3-0.2,1.8-0.6
				c0.2-0.1,0.4-0.2,0.5-0.3c0.3-0.2,0.7-0.5,1-0.7c0.3-0.2,0.6-0.4,0.9-0.5c0.2-0.1,0.5-0.3,0.7-0.3c0.5-0.1,0.8-0.3,1.2-0.6
				c0.3-0.2,0.7-0.3,1.1-0.5c0.3-0.1,0.5-0.2,0.8-0.3c0.5-0.2,0.9-0.3,1.4-0.5c0.3-0.1,0.4,0,0.4,0.3c0.1,0.4,0.2,0.5,0.6,0.4
				c0.4-0.1,0.7,0,0.9,0.3c0.1,0.2,0.2,0.3,0.4,0.4c0.1,0,0.2,0,0.3,0c0-0.2,0-0.4-0.1-0.6c-0.1-0.2-0.4-0.4-0.6-0.6
				c0.1-0.1,0.1-0.1,0.1-0.1c0.5-0.2,1-0.3,1.5-0.5c0.3-0.1,0.5-0.3,0.8-0.5c0.4-0.3,0.3-0.8-0.2-1.2c-0.1-0.1-0.3-0.3-0.5-0.4
				c-0.2-0.1-0.5,0-0.7,0c-0.1,0-0.2,0.1-0.3,0.2c-0.5,0.5-1.1,0.3-1.7,0.3c-0.1,0-0.2-0.2-0.2-0.3c0-0.3,0.1-0.6,0.1-0.9
				c0.1-0.5-0.1-0.7-0.6-0.7c-0.5,0.1-0.9,0.2-1.2,0.5c-0.1,0.1-0.3,0.2-0.4,0.2c-0.3,0-0.5,0.1-0.7,0.4c-0.2,0.2-0.5,0.4-0.8,0.4
				c-0.4,0.1-0.7,0.4-1,0.7c-0.2,0.2-0.6,0.4-0.9,0.6c-0.3,0.2-0.8,0.2-1.1,0.6c-0.1,0.1-0.3,0.1-0.5,0.1c-0.1,0-0.2-0.2-0.2-0.3
				c-0.1-0.4,0-0.9,0.2-1.3c0.2-0.3,0.1-0.8,0.2-1.2c0,0-0.2-0.2-0.2-0.1c-0.2,0.1-0.5,0.2-0.7,0.4c-0.3,0.2-0.6,0.2-0.9,0.2
				c-0.3,0-0.5,0-0.6,0.3c-0.1,0.4-0.4,0.5-0.9,0.3c0,0,0-0.1,0-0.1c0.4-0.4,0.7-0.9,1.1-1.3c0.7-0.8,1.4-1.5,2.2-2.2
				c0.9-0.9,1.7-1.7,2.6-2.5c0.3-0.2,0.6-0.4,0.9-0.7c0.5-0.6,1-1.2,1.6-1.7c0.3-0.3,0.6-0.5,0.8-0.8c0.2-0.2,0.4-0.5,0.8,0
				c0.1-0.1,0.1-0.2,0.1-0.2c-0.1-0.4,0.1-0.7,0.3-0.9c0.4-0.5,0.9-0.9,1.3-1.3c0.6-0.6,1.2-1.2,1.8-1.8c0.4-0.4,0.9-0.7,1.3-1
				c0.3-0.3,0.7-0.6,1-0.9c0.5-0.4,0.9-0.9,1.4-1.4c0.1-0.2,0.3-0.3,0.5-0.5c0.2-0.1,0.4-0.2,0.6-0.4c0.1,0,0.2-0.1,0.2-0.1
				c0.3-1,1.1-1.6,1.7-2.3c1-1.2,2.1-2.2,3.2-3.3c0.9-0.9,1.9-1.8,2.8-2.8c0.6-0.7,1.3-1.3,2.1-1.9c0.3-0.2,0.5-0.3,0.8-0.4
				c0.7-0.2,1.4-0.3,2.1-0.4c0.8,0,1.1,0.4,1.1,1.2c0,0.5-0.1,0.9-0.1,1.4c0,0.1,0.1,0.2,0.1,0.3c0,0.4,0.1,0.8-0.2,1.1
				c0,0,0,0.1,0,0.2c-0.1,1.9-0.1,3.8,0,5.8c0,0.3,0,0.6,0,1c0,0.1,0,0.3,0,0.3c0.3,0,0.5,0,0.8,0c0.3,0,0.4-0.2,0.3-0.5
				c-0.1-0.2-0.3-0.5-0.1-0.8c0,0-0.1-0.1-0.1-0.1c-0.1,0.1-0.1,0.1-0.1,0.2c0,0.2,0,0.4-0.1,0.6c0,0.1-0.1,0.1-0.2,0.2
				c-0.1-0.1-0.1-0.1-0.2-0.2c-0.2-0.6,0-1.1,0.1-1.7c0-0.1,0-0.1,0.1-0.1c0.7-0.3,1.1-1.1,1.9-1.3c0.2-0.1,0.4-0.2,0.3-0.4
				c-0.1-0.1-0.3-0.3-0.5-0.3c-0.3,0.1-0.6,0.2-0.8-0.2c-0.2-0.2-0.4-0.4-0.4-0.8c0-0.4-0.1-0.8-0.2-1.2c0-0.4-0.1-0.8-0.1-1.2
				c0-0.5,0-1.1,0.1-1.6c0-0.4,0.4-0.7,0.8-0.6c0.2,0.1,0.4,0.2,0.6,0.3c1.1,1.1,2.1,2.1,3.1,3.2c0.5,0.5,1,1,1.5,1.5
				c0.3,0.3,0.6,0.5,0.7,1c0.1,0.2,0.4,0.3,0.6,0.4c0,0-0.1,0.1-0.1,0.1c-0.2,0.2-0.1,0.3,0.1,0.4c0.2,0.1,0.4,0.3,0.5,0.5
				c0.1,0.1,0.2,0.1,0.3,0.2c0.4,0,0.6,0.1,0.9,0.4c0.9,0.9,1.9,1.9,2.9,2.8c1.1,1.1,2.4,2.2,3.3,3.6c0.4,0.6,0.8,1,1.2,1.5
				c0.2,0.2,0.5,0.4,0.7,0.6c0.6,0.6,1.2,1.2,1.8,1.8c0,0,0.1,0.1,0.1,0.1c0.4,0.3,0.9,0.7,1.4,1c0.5,0.4,1,0.8,1.5,1.3
				c0.8,0.8,1.5,1.5,2.3,2.3c0.3,0.3,0.6,0.6,0.6,1.1c0,0.1,0.2,0.2,0.3,0.2c0.6,0,1,0.5,1.4,0.9c0.7,0.7,1.4,1.4,2.1,2.1
				c1,1,2,2,2.9,2.9c0.7,0.7,1.3,1.4,2,2.1c0.4,0.4,0.8,0.7,1.1,1.1c0.8,1.1,2,1.8,2.9,2.7c0.8,0.8,1.6,1.6,2.4,2.4
				c1,1,1.9,1.9,2.9,2.9c0.6,0.6,1.2,1.3,1.8,2c0.2,0.3,0.4,0.6,0.5,0.9c0.1,0.2,0.1,0.5-0.3,0.5c-0.1,0-0.2,0.1-0.3,0.2
				c0.1,0.1,0.2,0.2,0.3,0.2c0.7,0.3,1,0.8,0.6,1.5c0,0.1-0.1,0.2-0.1,0.3c-0.2,0.5-0.3,1-0.5,1.4c-0.3,0.5-0.7,1-1.2,1.4
				c-0.7,0.8-1.5,1.6-2.2,2.3c-0.5,0.5-1,1-1.5,1.5c-0.2,0.2-0.5,0.2-0.6-0.2c-0.1-0.1-0.1-0.3-0.2-0.4c-0.1,0-0.4,0-0.4,0.1
				c-0.1,0.2-0.1,0.5,0.2,0.6c0.5,0.2,0.5,0.3,0.2,0.7c-0.6,0.7-1.3,1.3-1.9,2c-0.5,0.5-0.9,1-1.4,1.4c-0.6,0.6-1.3,1.2-2,1.9
				c-0.6,0.6-1.2,1.2-1.8,1.8c-0.4,0.4-0.8,0.7-1.1,1.1c-0.2,0.2-0.3,0.4-0.5,0.6c-0.5,0.6-1,1.1-1.5,1.6c-0.3,0.3-0.5,0.7-0.8,1
				c-0.2,0.2-0.5,0.5-0.7,0.7c-0.3,0.2-0.6,0.2-0.9-0.1c-0.2-0.2-0.5-0.3-0.7-0.5C258.1,68.1,258,68.1,257.9,68.1L257.9,68.1
				L257.9,68.1L257.9,68.1z M215.1,35.8c0.1,0.6,0.2,1.1-0.1,1.6c-0.1,0-0.3,0-0.4,0c-0.1,0-0.2,0.1-0.2,0.2c0,0.1,0.1,0.3,0.2,0.3
				c0.3,0,0.5,0.1,0.7,0.4c0.3,0.3,0.3,0.6,0.1,1c-0.1,0.2-0.2,0.4-0.2,0.6c0,0.9,0,1.8,0,2.7c0,0.3,0.3,0.6,0.6,0.6
				c0.7,0.1,1.4,0.2,2.1,0.2c0.2,0,0.4,0.2,0.6,0.2c0.5,0,0.9,0,1.4,0c0.1,0,0.2,0,0.3-0.1c0.4-0.2,0.7-0.5,1-0.7
				c0.3-0.2,0.6-0.5,0.5-1c0-0.1,0-0.3,0-0.4c0.1-0.3,0.2-0.6,0.4-0.9c0.1-0.3,0.3-0.5,0.5-0.7c0.3-0.3,0.6-0.6,1-0.9
				s0.8-0.5,1.2-0.6c0.7-0.1,1.4,0,2.1,0c2.3,0,4.7-0.1,7-0.1c0.6,0,0.9,0.6,0.6,1.2c-0.2,0.4-0.6,0.7-0.8,1
				c-0.1,0.1-0.2,0.2-0.3,0.3c-0.1,0.2-0.3,0.5-0.4,0.5c-0.3,0.2-0.4,0.7-0.9,0.7c0,0-0.1,0.2-0.1,0.3c0,0.2-0.1,0.4-0.2,0.5
				c-0.3,0.3-0.7,0.5-0.8,1c0,0-0.1,0.1-0.1,0.1c-0.3,0.3-0.6,0.7-0.8,1.1c-0.2,0.3-0.5,0.7-0.8,1c-0.2,0.2-0.5,0.5-0.5,0.7
				c-0.1,0.3-0.1,0.6-0.4,0.9c-0.3,0.3-0.5,0.7-1,0.6c-0.1,0-0.4,0.1-0.4,0.2c-0.1,0.3-0.2,0.3-0.4,0.3c-0.2,0-0.3,0-0.5,0.1
				c0.1,0.3,0.1,0.6,0.2,0.7c0.4,0.3,0.3,0.6,0.2,0.9c-0.1,0.3-0.4,0.5-0.6,0.7c-0.1,0-0.1,0.1-0.1,0.2c0,0.4-0.1,0.7-0.4,0.9
				c-0.3,0.2-0.5,0.5-0.5,0.9c0,0.3-0.1,0.7-0.5,0.8c-0.1,0-0.1,0.5-0.1,0.5c0.4,0.1,0.2,0.5,0.3,0.8c0,0.2-0.1,0.4-0.1,0.7
				c0,0.2-0.2,0.3-0.2,0.4c-0.1,0.5-0.1,1.1-0.2,1.7c-0.2,0.7-0.5,1.4-0.6,2.2c-0.1,0.8,0,1.7-0.3,2.5c-0.2,0.6,0,1.2,0.1,1.8
				c0.1,0.3,0.2,0.6,0.4,0.7c0.5,0.3,1,0.6,1.6,0.6c0.9,0,1.7,0,2.6,0c1,0,2,0.1,3,0.2c0.9,0.1,1.4-0.5,2.1-0.8
				c0.3-0.2,0.5-0.4,0.5-0.8c0,0,0-0.1,0-0.1c0.3-0.5,0.4-1.2,0.5-1.8c0.1-0.5,0.1-1.1,0.1-1.6s-0.1-1.2,0.3-1.6c0,0,0-0.1,0-0.2
				c0.1-0.8,0.3-1.5,0.4-2.3c0-0.2,0.2-0.3,0.4-0.2c0.1,0,0.1,0.1,0.2,0.1l0.1,0c-0.1-0.2-0.1-0.4-0.1-0.6c0-0.2,0-0.5,0-0.8
				c0-0.3,0.2-0.5,0.2-0.8c0-0.5,0-1,0-1.5c0-0.1,0.1-0.2,0.1-0.3c0.1-0.2,0.1-0.3,0.2-0.5s0.1-0.3,0.2-0.5c0.1-0.2,0.2-0.5,0.3-0.7
				c0-0.1,0-0.2,0.1-0.3c0.2-0.4,0.5-0.8,0.6-1.2c0.1-0.5,0.4-0.8,0.5-1.2c0.1-0.2,0.2-0.2,0.3-0.1c0.3,0.2,0.5,0.5,0.8,0.7
				c0.4,0.4,0.8,0.9,1.2,1.3c0.1,0.1,0.2,0.1,0.3,0.2c0.2,0.2,0.4,0.4,0.7,0.5l0.1-0.1c-0.2-0.4-0.2-0.9-0.5-1.2
				c-0.5-0.5-1-1-1.6-1.3c-0.5-0.3-0.6-0.6-0.6-1.2c0-0.2,0-0.6,0.1-0.7c0.4-0.2,0.3-0.6,0.4-0.9c0.1-0.1,0.1-0.2,0.2-0.3
				c0.2-0.3,0.6-0.6,0.5-1.1c0-0.2-0.1-0.4,0.2-0.4c0.1,0,0.1-0.2,0.1-0.2c0.1-0.1,0.1-0.3,0.1-0.4c0.3-0.4,0.6-0.9,0.9-1.3
				c0.1-0.1,0.1-0.2,0.2-0.3c0.2-0.3,0.5-0.6,0.8-1c0.2-0.2,0.2-0.6,0.4-0.8c0.4-0.5,0.8-0.9,1.2-1.4c0.2-0.2,0.4-0.5,0.6-0.8
				c0.1-0.1,0.1-0.1,0.2-0.2c0.2-0.1,0.4-0.3,0.5-0.4c0.1-0.3,0.4-0.4,0.6-0.6c0.2-0.2,0.4-0.4,0.6-0.6c0.1-0.2,0.3-0.3,0.4-0.5
				c0.1-0.3,0.6-0.5,0.5-1c0,0,0.1,0,0.1-0.1c0.1-0.1,0.1-0.2,0.1-0.3c-0.1-1.1,0.3-2.2-0.3-3.3c0.1-0.5-0.3-0.7-0.5-1
				c-0.1-0.2-0.2-0.3-0.4-0.4c-0.5-0.3-1-0.4-1.6-0.4c-1.9,0-3.7,0-5.6,0.1h-2.2c-0.4,0-0.8,0-1.2-0.1c-0.2,0-0.3-0.1-0.1-0.3
				c-0.3,0-0.5-0.1-0.8,0.2c-0.1,0.1-0.2,0.1-0.3,0.1c-1.8,0-3.5,0-5.3,0c-0.6,0-1.3-0.2-1.9-0.2c-0.6,0-1.2,0-1.8,0
				c-0.4,0-0.6-0.3-0.5-0.6c0.1-0.6-0.3-1-0.9-0.9c-0.1,0-0.2,0.1-0.3,0.1c-0.2,0-0.5-0.1-0.6-0.2c-0.1-0.2,0-0.4,0.2-0.5
				c0.2-0.1,0.3-0.2,0.4-0.4c-0.1-0.1-0.3-0.2-0.4-0.3c-0.1-0.3-0.5-0.6-0.1-0.9c0,0,0,0,0-0.1c-0.1-0.4-0.1-0.8-0.2-1.1
				c-0.1-0.3-0.3-0.4-0.6-0.2c-0.3,0.2-0.6,0.4-0.9,0.5c-0.1,0-0.2,0-0.3,0c-0.1,0-0.2-0.1-0.4-0.2c-0.1-0.1-0.2-0.2-0.2-0.3
				c0.1-0.5-0.1-0.8-0.4-1.1c-0.2-0.2-0.4-0.4-0.6-0.4c-0.2,0.1-0.4,0.4-0.6,0.6c-0.2,0.2-0.2,0.5-0.4,0.6c-0.1,0.1-0.4,0.1-0.5,0.1
				c-0.4-0.5-0.6-0.1-0.8,0.2c-0.1,0.1-0.1,0.3-0.1,0.4c-0.1,0.1-0.1,0.2-0.2,0.2s-0.2,0-0.3,0.1c-0.2,0.5-0.7,0.3-1.1,0.3
				c-0.2,0-0.3-0.1-0.3-0.3c0.1-0.1,0.1-0.3,0.2-0.4c0.2-0.4,0.5-0.6,0.5-1.1c0-0.5-0.1-0.6-0.5-0.5c-0.7,0.1-1.4,0.3-2.1,0.5
				c-0.1,0-0.1,0.1-0.2,0.2c-0.1,0.3-0.3,0.6-0.4,1c-0.3,0.5-0.7,1.1-1,1.6c-0.2,0.3-0.3,0.7-0.5,1c-0.3,0.6-0.3,1,0.1,1.5
				c0.2,0.3,0.6,0.3,0.8,0c0.3-0.3,0.5-0.7,0.9-1c0.5-0.4,0.7-1,1-1.4c0.2-0.2,0.4-0.5,0.6-0.6c0.4-0.2,0.5,0.3,0.6,0.5
				c0.2,0.3-0.2,1-0.5,1c-0.5,0.1-0.7,0.2-0.8,0.8c0,0.1,0,0.3,0,0.4c0.1,0,0.3,0,0.4,0c0.2,0,0.5,0,0.6,0.1c0.1,0.1,0.1,0.4,0,0.6
				c-0.1,0.3-0.3,0.5-0.5,0.8c0.2,0.1,0.3,0.1,0.4,0.2c0.3,0.3,0.6,0.6,0.9,0.9c0,0,0,0,0,0.1c0,0.3,0,0.6-0.2,0.8
				c-0.1,0.1-0.1,0.5-0.1,0.6c0.1,0.1,0.4,0.1,0.6,0.1c0.1,0,0.2-0.1,0.3-0.2l0.1,0.1c-0.1,0.2-0.1,0.4-0.2,0.5
				c-0.2,0.2-0.2,0.6,0,0.8c0.1,0.2,0.2,0.3,0.2,0.5c0,0.4,0,0.8-0.1,1.1c0,0.1-0.1,0.2-0.1,0.2c-0.1,0.1-0.1,0.2-0.2,0.2
				c0,0.3,0,0.6-0.1,1L215.1,35.8L215.1,35.8L215.1,35.8L215.1,35.8z M262.5,37.8l-0.1-0.2c-0.2-0.2-0.4-0.4-0.6-0.6
				c-0.4-0.3-0.9-0.4-1.1-1c0,0-0.1,0-0.1-0.1c-0.5-0.3-1-0.5-1.5-0.8c-0.4-0.2-0.9-0.2-1.1-0.7c-0.1-0.2-0.2-0.3-0.4-0.4
				c-0.6-0.4-1.3-0.8-1.9-1.2c-0.2-0.1-0.3-0.2-0.5-0.3c-0.6-0.3-1.1-0.5-1.7-0.8c-0.1-0.1-0.2-0.3-0.3-0.4
				c-0.1-0.1-0.1-0.2-0.2-0.3c-0.2-0.2-0.1-0.5,0.1-0.6c0.1-0.1,0.1-0.1,0.2-0.2c0.5-0.6,0.8-1.2,1.4-1.8c0.3-0.3,0.5-0.7,0.1-1.2
				c-0.1-0.2-0.3-0.4-0.4-0.6c-0.3-0.6-0.6-1.1-0.9-1.7c-0.1-0.3-0.3-0.6-0.5-0.8c-0.5-0.4-1.1-0.8-1.8-0.8c-0.4,0-0.8-0.1-1.2-0.2
				c-0.3,0-0.6-0.2-0.8-0.2c-0.6,0-0.6,0.1-0.6,0.6c0,0.5,0,1.1,0,1.6c0,0.1,0.1,0.3,0.2,0.4c0.3,0.3,0.4,0.7,0.3,1.1
				c-0.1,0.6,0.1,1,0.4,1.5c0.3,0.4,0.8,0.8,1.1,1.1c0.1,0.1,0.2,0.3,0.4,0.4c0.3,0.3,0.5,0.6,0.8,0.9c0.3,0.3,0.5,0.7,0.8,0.9
				c0.3,0.2,0.5,0.5,0.7,0.7c0.4,0.6,0.8,1.1,1.2,1.7c0.3,0.3,0.4,0.8,0.9,1c0.1,0,0.1,0.1,0.1,0.2c0.1,0.2,0.3,0.5,0.5,0.7
				c0.3,0.4,0.7,0.8,1,1.2c0.3,0.4,0.6,0.8,0.9,1.2c0.3,0.4,0.7,0.7,1,1.1c0.3,0.4,0.5,0.8,0.8,1.1s0.6,0.7,0.9,1
				c0.3,0.4,0.7,0.7,1,1.1c0.3,0.4,0.6,0.8,0.9,1.1c0.4,0.3,0.7,0.7,1,1.1c0.3,0.4,0.6,0.9,0.9,1.3c0.3,0.4,0.8,0.4,1.2,0.4
				c1.1,0,2.3,0,3.4,0c0.1,0,0.2,0.1,0.3,0.1c0.4,0,0.7,0,1,0c0.1,0,0.2,0,0.3,0c0.2,0,0.4,0.1,0.5,0.1c0.9,0,1.7,0.1,2.6,0.1
				c0.9,0,1.8,0,2.7,0c0.1,0,0.2-0.1,0.3-0.2c-0.1-0.1-0.2-0.2-0.3-0.3c-0.4-0.2-0.8-0.3-1.1-0.5c-0.3-0.3-0.9-0.3-1.1-0.8
				c0,0-0.2-0.1-0.2-0.1c-0.4,0-0.6-0.2-0.8-0.5c-0.1-0.2-0.2-0.3-0.4-0.4c-0.2-0.1-0.5-0.2-0.7-0.3c-0.4-0.2-0.7-0.1-1,0.3
				c-0.1,0.1-0.2,0.1-0.3,0.1c-0.2,0-0.4,0-0.6-0.1c0.2-0.1,0.4-0.2,0.6-0.3c0.2-0.1,0.3-0.3,0.4-0.5c0-0.1-0.2-0.2-0.4-0.3
				c-0.1-0.1-0.2-0.1-0.3-0.2c-0.3-0.3-0.6-0.6-1.1-0.5c-0.1,0-0.3-0.1-0.3-0.2c-0.2-0.3-0.4-0.3-0.7-0.2c-0.2,0.1-0.4,0.2-0.5-0.1
				c-0.1-0.3-0.2-0.3-0.5-0.3c-0.4,0-0.4-0.2-0.4-0.5c0-0.2,0-0.4,0-0.6c-0.5,0-0.5,0-0.7-0.3c-0.1-0.2-0.3-0.4-0.5-0.6
				c-0.4-0.4-1-0.7-1.1-1.3c0-0.2-0.2-0.3-0.2-0.5c0-0.1-0.1-0.3,0-0.4c0.3-0.6,1.4-0.7,1.9-0.2c0.2,0.2,0.4,0.3,0.7,0.2
				c0.2-0.2,0.3-0.5,0.1-0.8c-0.2-0.2-0.5-0.4-0.7-0.4c-0.5,0-0.8-0.2-1.1-0.5c-0.1-0.1-0.4-0.1-0.6-0.1c0,0.2-0.1,0.3-0.1,0.5
				c0.1,0.4-0.2,0.6-0.3,1c-0.3-0.3-0.6-0.3-0.9-0.1C263.2,37.3,262.9,37.6,262.5,37.8L262.5,37.8L262.5,37.8L262.5,37.8z
				 M242.7,81.2c0.2-0.2,0.4-0.3,0.6-0.4c0.4-0.4,0.7-0.9,1.1-1.3c0.3-0.3,0.8-0.6,1-0.9c0.3-0.5,0.8-0.8,1.2-1.2
				c0.2-0.2,0.4-0.4,0.7-0.6c0.5-0.4,0.7-1,0.6-1.7c-0.2-0.7-0.3-1.4-0.4-2.1c0-0.2,0-0.3,0-0.4c-0.4-0.7-0.2-1.4-0.3-2.1
				c-0.1-0.6,0.2-1.1,0.6-1.4c0.3-0.2,0.2-0.4,0.1-0.6c-0.3-0.3-0.6-0.5-1-0.7c-0.2-0.1-0.3-0.1-0.4,0.1c-0.1,0.3-0.3,0.6-0.5,0.9
				c-0.2,0.3-0.4,0.7-0.7,1c-0.2,0.3-0.5,0.7-0.8,1c-0.4,0.3-0.7,0.2-0.7-0.3c0-0.5,0.2-1,0.4-1.5c0,0,0.1-0.1,0.1-0.1
				c0.2-0.2,0.5-0.4,0.8-0.7c0.4-0.4,0.8-0.8,1.2-1.3c0.2-0.2,0.4-0.4,0.5-0.5c0.2,0,0.4,0,0.5-0.2c0.1-0.2,0.3-0.3,0.4-0.5
				c0.5-0.5,1-1.1,1.5-1.6c0.4-0.4,0.7-0.8,1-1.2c0.1-0.1,0-0.4,0-0.6c-0.1,0-0.4,0-0.4,0c-0.3,0.3-0.7,0.2-1,0.2
				c-0.5,0-1,0-1.5,0.1c-0.1,0-0.2,0.1-0.3,0.1c-0.2,0.1-0.4,0.2-0.6,0.2c-0.4,0.1-0.9,0-1.4,0.1c-0.1,0-0.3,0.1-0.4,0.2
				c-0.1,0.3-0.1,0.6,0.2,0.8c0.3,0.3,0.6,0.6,0.8,1c0.3,0.4,0.1,0.6-0.3,0.6h-0.7c0,0.2,0,0.5-0.1,0.6c-0.1,0.1-0.4,0.1-0.6,0.2
				c-0.1,0-0.1,0-0.2,0c-0.3,0-0.6,0.1-0.8,0.1c0.3,0.7,1,0.5,1.4,0.8c0,0.1,0,0.1,0,0.1c0,0-0.1,0.1-0.1,0.1
				c-0.5,0.2-0.8,0.6-0.7,1.1c0.1,0.8-0.5,1.1-0.9,1.6c-0.3,0.4-0.7,0.8-1.1,1.2c-0.1,0.1-0.1,0.2-0.2,0.2c-0.5,0.2-0.8,0.7-1.2,1.1
				c0.2,0.1,0.3,0.2,0.5,0.2c0.4,0,0.9,0,1.4,0c0.5,0,0.8,0.3,0.6,0.8c-0.1,0.3-0.4,0.7-0.5,1c-0.1,0.2-0.1,0.5-0.1,0.7
				c0,0.1,0.4,0.1,0.6,0.2c0.6,0.1,1.1,0.1,1.7,0.3c0.5,0.1,0.5,0.3,0.2,0.8c-0.1,0.1-0.1,0.3-0.2,0.4c-0.1,0.1-0.1,0.3-0.1,0.4
				c-0.2,0.4-0.6,0.8-0.6,1.3c0,0.1-0.1,0.1-0.1,0.2c-0.1,0.2-0.2,0.4-0.3,0.6c-0.1,0.1-0.1,0.3-0.2,0.4
				C242.5,80.5,242.6,80.8,242.7,81.2L242.7,81.2z M258.7,63.6l-0.1-0.1c0-1-0.1-2-0.1-3c0-0.4-0.3-0.5-0.4-0.7c0,0-0.2,0-0.2,0
				c-0.1,0.2-0.3,0.2-0.5,0.3c-0.2,0.1-0.5,0.2-0.7,0.4c-0.2,0.2-0.4,0.3-0.6,0.2c-0.1,0-0.2-0.3-0.2-0.5c0-0.9,0-1.7,0-2.6
				c0-0.2,0-0.3-0.1-0.5c0-0.1-0.2-0.2-0.3-0.2c-0.3,0.2-0.6,0.4-0.8,0.6c-0.3,0.4-0.6,0.8-0.9,1.2c-0.4,0.6-1,1.1-1.5,1.6
				c-0.3,0.3-0.3,0.6-0.1,0.9c0.1,0.2,0.2,0.4,0.2,0.6c0,0.1-0.1,0.3,0,0.5c0.1,0.2,0.1,0.4,0.3,0.6c0.2,0.1,0.3,0,0.5-0.2
				c0.2-0.3,0.7-0.1,0.9,0.2c0.1,0.2,0.2,0.4,0,0.6c-0.1,0.1,0,0.3,0.1,0.5c0,0.1,0.1,0.2,0.2,0.3c0.1,0.2,0.2,0.4,0.3,0.4
				c0.3,0.2,0.5,0.1,0.8-0.1c0.3-0.2,0.6-0.4,0.9-0.5c0.5-0.2,1.1-0.3,1.6-0.5c0.1,0,0.2-0.1,0.2-0.1c0.1,0,0.2,0,0.3,0
				c0,0.1,0,0.3,0,0.3c-0.3,0.2-0.5,0.4-0.8,0.5c-0.6,0.3-1.2,0.6-1.8,0.9c-0.1,0.1-0.2,0.2-0.2,0.4c0,0.1,0.2,0.2,0.3,0.2
				c0.4,0,0.7,0,1,0.1c0.2,0,0.5,0.1,0.7,0.1c0.2,0.1,0.5,0.2,0.7,0.2c0.3,0.1,0.5,0.1,0.7,0.1c0.3-0.3,0.7-0.7,1-1
				c0.4-0.5,0.9-0.8,1.5-1c0.3-0.1,0.5-0.2,0.5-0.6c0.1-0.6,0.5-1,0.9-1.3c0.4-0.3,0.9-0.6,1.4-0.9l0-0.2c-0.2,0-0.3-0.1-0.5-0.1
				c-0.5-0.1-1,0.3-1.4,0.5c-0.5,0.2-0.9,0.4-1.4,0.6c-0.4,0.2-0.8,0.3-1.2,0.5L258.7,63.6L258.7,63.6L258.7,63.6L258.7,63.6z
				 M234.3,76.1L234.3,76.1c-0.2,0-0.4,0-0.4,0.1c-0.3,0.5-0.5,1.1-0.4,1.7c0,0.1,0.2,0.3,0.3,0.3c0.4,0,1.1-0.6,1.3-0.9
				c0.1-0.4,0.3-0.7,0.8-0.9c0.1,0,0.2-0.1,0.2-0.2c0.3-0.3,0.5-0.6,0.8-0.9c0.1-0.1,0.1-0.3,0.2-0.3c0.5-0.3,0.9-0.6,1.2-1.2
				c0.1-0.1,0.2-0.2,0.4-0.2c0.4-0.1,0.7-0.4,0.7-0.9c0-0.6,0.1-1.2,0.6-1.7c0.1-0.2,0.1-0.5,0.1-0.8c0-0.2-0.2-0.3-0.4-0.2
				c-0.4,0.3-0.8,0.6-1.1,0.8c-0.2,0.1-0.4,0.2-0.6,0.3c-0.4,0.2-0.7,0.5-1.1,0.8c-0.4,0.2-0.9,0.4-1.3,0.7
				c-0.6,0.3-1.4,0.6-1.5,1.5c0,0,0,0.1-0.1,0.1c-0.2,0.5,0,1,0.6,1.2c0.1,0,0.2,0.1,0.3,0.2c0.1,0.1,0.1,0.2,0.1,0.4
				c0,0.1-0.2,0.2-0.3,0.2C234.5,76.1,234.4,76.1,234.3,76.1L234.3,76.1L234.3,76.1z M229.2,20.5L229.2,20.5l0,0.7
				c0,0.2,0.1,0.4,0.3,0.5c0.3,0,0.4-0.2,0.4-0.4c0-0.3,0-0.6,0-0.9c0-0.2,0.1-0.3,0.3-0.4c0.3-0.1,0.6-0.3,0.8-0.5
				c0.5-0.4,0.7-1,0.8-1.6c0-0.2,0-0.4-0.2-0.5c-0.3-0.3-0.4-0.6-0.2-1c0.1-0.3,0.3-0.6,0-0.9c-0.2-0.2,0-0.3,0.2-0.3
				c0.4,0,0.4-0.2,0.3-0.5c0-0.1-0.1-0.3-0.2-0.4c0-0.1,0-0.3,0-0.4c0.2-0.4,0.5-0.8,0.7-1.2c0-0.1,0-0.2,0-0.2
				c-0.1,0-0.2-0.1-0.4,0c-0.2,0.1-0.4,0.2-0.6,0.3c-0.1,0.1-0.4,0.2-0.4,0.3c-0.2,0.5-0.7,0.6-1,0.9c-0.4,0.4-0.7,0.7-0.7,1.2
				c0,1.2,0.1,2.3-0.2,3.5C229.2,19.2,229.3,19.9,229.2,20.5L229.2,20.5L229.2,20.5L229.2,20.5z M219,77.7l-0.1-0.2
				c-0.1,0.1-0.2,0.2-0.3,0.4c-0.1,0.1-0.1,0.2-0.2,0.3c-0.1,0.2-0.1,0.3-0.1,0.5c0,0.3,0.1,0.7,0.2,1c0,0.1,0.1,0.3,0.1,0.4
				c0.4,0.6,0.9,1.3,1.4,1.9c0.4,0.6,0.9,1.1,1,1.9c0,0,0.1,0.1,0.1,0.1c0.3,0.5,0.5,0.9,0.8,1.4c0.2,0.3,0.3,0.6,0.5,0.9
				c0.1,0.1,0.2,0.2,0.4,0.2c0-0.1,0.1-0.3,0-0.4c-0.4-0.6-0.4-1.3-0.5-2c0-0.2-0.1-0.3-0.1-0.5c-0.2-0.7-0.4-1.4-0.6-2.1
				c-0.1-0.3-0.1-0.6-0.2-0.8c-0.1-0.2-0.4-0.3-0.1-0.6c0,0-0.1-0.1-0.1-0.2c-0.1-0.2-0.2-0.5-0.3-0.7c-0.1-0.3-0.1-0.7-0.5-0.9
				c-0.1-0.1-0.2-0.3-0.4-0.4c-0.1-0.1-0.2-0.2-0.3-0.2C219.6,77.6,219.3,77.7,219,77.7L219,77.7L219,77.7z M234.8,84.7l0.1-0.1
				c0-0.1,0-0.2,0-0.2c0.1-0.1,0.1-0.3,0.2-0.3c0.1,0,0.3,0.1,0.4,0.2c0.1,0.1,0.1,0.3,0.1,0.5c-0.1,0.7-0.4,1.4-0.9,2
				c-0.1,0.2-0.2,0.6-0.1,0.7c0.2,0.2,0.5,0.1,0.7-0.1c0.1-0.1,0.4-0.2,0.6-0.3c0.6-0.2,1.2-0.3,1.9-0.4c0.1,0,0.1,0,0.1-0.1
				c0.3-0.2,0.5-0.9,0.3-1.2c-0.3-0.6-0.4-1.2-0.3-1.8c0.1-0.6-0.4-0.8-0.9-0.5c-0.3,0.2-0.5,0.5-0.7,0.8c-0.1,0.2-0.3,0.3-0.4,0.2
				c-0.1-0.1-0.3-0.2-0.3-0.4c-0.1-0.3-0.3-0.4-0.6-0.4c-0.3-0.1-0.3,0.2-0.4,0.4c0,0.1-0.1,0.2-0.1,0.2c-0.2,0.1-0.4,0.3-0.3,0.6
				C234.3,84.5,234.6,84.6,234.8,84.7L234.8,84.7L234.8,84.7L234.8,84.7z M217,59.9l0-0.1c-0.3-0.2-0.5-0.4-0.8-0.5
				c-0.5-0.3-1-0.5-1.4-0.8c-0.4-0.3-0.8-0.7-1.1-1.1c-0.3-0.3-0.7-0.4-1.1-0.3c-0.1,0-0.2,0.3-0.3,0.5c-0.3,0.5,0,1,0.5,1.4
				c0.4,0.3,0.9,0.6,1.4,0.9c0.2,0.1,0.4,0.2,0.5,0.2c0.6,0,1.1,0,1.7,0C216.6,60,216.8,59.9,217,59.9L217,59.9L217,59.9z
				 M228.3,83.7c0-0.2,0.1-0.4,0.1-0.7c0.1-0.3,0-0.6-0.4-0.6c-0.1,0-0.2-0.1-0.2-0.1c-0.3-0.3-0.6-0.7-1-1
				c-0.4-0.3-0.9-0.6-1.3-0.9c-0.3-0.2-0.4-0.2-0.4,0.2c0,0.2-0.1,0.4-0.4,0.4c-0.1,0-0.2,0.2-0.2,0.2c0.3,0.6,0.4,1.3,1.1,1.7
				c0.1,0.1,0.1,0.2,0.2,0.2c0.1,0.1,0.2,0.2,0.4,0.3c0.5,0.3,1.1,0,1.6-0.1C227.9,83.5,228.1,83.5,228.3,83.7L228.3,83.7
				L228.3,83.7L228.3,83.7z M245.8,49.8l0.4-0.4c0.4,0.3,0.6,0.3,0.9-0.1c0.1-0.1,0.1-0.2,0.2-0.3c0.3-0.3,0.3-0.9,0-1.2
				c-0.2-0.2-0.2-0.4-0.4-0.6c-0.1-0.1-0.3-0.3-0.4-0.3c-0.3,0-0.5,0-0.8,0c-0.2,0-0.4,0.1-0.4,0.4c0,0.1-0.1,0.3-0.2,0.4
				c-0.4,0-0.4,0.3-0.5,0.6c0,0.2,0,0.3-0.1,0.5c-0.3,0.4,0.1,0.5,0.3,0.6c0.1,0,0.3,0,0.4,0C245.4,49.4,245.7,49.4,245.8,49.8
				L245.8,49.8L245.8,49.8z M220.3,16.8L220.3,16.8c0.3,0,0.5-0.1,0.7-0.2c0.3-0.2,0.6-0.5,1-0.8c0.4-0.2,0.5-0.8,1-0.8
				c0.1,0,0.1-0.1,0.2-0.2c0.1-0.3,0.2-0.6,0.3-0.9c0.3-0.7,0.8-1.2,0.8-1.9c0-0.1-0.1-0.2-0.1-0.3c-0.1,0.1-0.3,0.1-0.4,0.2
				c-0.2,0.2-0.4,0.5-0.5,0.7c-0.3,0.4-0.6,0.8-0.9,1.3c-0.3,0.4-0.6,0.9-0.9,1.3c-0.3,0.5-0.7,0.9-1.1,1.4
				C220.4,16.5,220.3,16.7,220.3,16.8L220.3,16.8L220.3,16.8L220.3,16.8z M200.4,36.9c-0.1-0.2-0.1-0.3-0.2-0.4c0,0-0.2,0-0.3,0.1
				c-0.4,0.3-0.8,0.6-1.3,0.8c-0.9,0.5-1.8,1-2.6,1.6c-0.2,0.2-0.2,0.2,0,0.3c0.1,0.1,0.3,0.1,0.4,0.1c0.7-0.1,1.4-0.3,2.2-0.5
				c0.1,0,0.1,0,0.2-0.1c0.4-0.3,0.8-0.5,1-1C199.9,37.5,200.2,37.2,200.4,36.9L200.4,36.9L200.4,36.9z M227.4,46l0.1,0
				c0-0.1,0.1-0.3,0-0.4c-0.2-0.4-0.5-0.7-0.8-1c-0.1-0.1-0.2-0.2-0.4-0.2c-0.4-0.1-0.9-0.1-1.3-0.1c-0.2,0-0.3,0-0.5,0
				c-0.2,0-0.5,0-0.6,0.1c-0.1,0.2,0,0.5,0.1,0.7c0.2,0.4,0.6,0.6,0.8,1.1c0.1,0.2,0.4,0.3,0.6,0.4c0.1,0,0.2,0,0.3-0.1
				c0.2-0.3,0.6-0.5,0.6-1c0-0.2,0.3-0.2,0.4,0C227,45.6,227.2,45.8,227.4,46L227.4,46L227.4,46z M258.2,53.6c-0.1,0-0.2,0-0.3,0
				c-0.4,0.1-0.8,0.2-1.2,0.2c-0.2,0-0.4,0-0.6,0c-0.5,0-0.9,0.3-0.9,0.9c0,0.2,0,0.5-0.1,0.7c0,0.3,0.1,0.6,0.3,0.7
				c0.3,0,0.6,0,0.8-0.2c0.4-0.3,0.8-0.6,1.1-1C257.7,54.6,258.3,54.4,258.2,53.6L258.2,53.6L258.2,53.6L258.2,53.6z M224.7,19.3
				c0-0.1-0.1-0.4-0.2-0.4c-0.2,0-0.4,0.1-0.5,0.2c-0.1,0.1-0.3,0.3-0.4,0.4c-0.2,0.3-0.6,0.6-0.6,1c0,0.4,0,0.8,0,1.2
				c0,0.2,0,0.4-0.2,0.6c-0.1,0.1-0.1,0.5-0.1,0.7c0.2,0,0.5,0,0.7-0.1c0.5-0.4,0.9-0.9,0.8-1.6c0-0.1,0-0.1,0-0.2
				C224.7,20.5,224.5,19.9,224.7,19.3L224.7,19.3L224.7,19.3z M241.5,11.9c0,0.3,0.1,0.5,0.4,0.5c0.1,0,0.2,0.1,0.2,0.2
				c0.1,0.1,0.2,0.3,0.3,0.4c0.2,0.1,0.5,0.1,0.8,0.1c0.1,0,0.1-0.2,0.1-0.3c0.1-0.3-0.1-0.4-0.4-0.5c-0.2-0.1-0.4-0.2-0.6-0.3
				c-0.1-0.1-0.3-0.1-0.3-0.2c-0.1-0.6-0.7-0.5-1-0.9c-0.1-0.2-0.5-0.3-0.7-0.3c-0.3-0.1-0.6,0-1,0c-0.3,0-0.3,0.1-0.2,0.3
				c0.1,0.1,0.2,0.2,0.3,0.3c0.2,0.1,0.4,0.2,0.4,0.5c0,0.1,0.1,0.2,0.2,0.2C240.6,11.8,241,11.9,241.5,11.9L241.5,11.9L241.5,11.9z
				 M219,59.6L219,59.6c-0.1,0.4-0.1,0.7,0.2,0.9s0.7,0.2,1.1,0.2c0.3-0.1,0.6-0.3,0.6-0.7c0-0.3,0-0.6-0.4-0.7
				c-0.1,0-0.2-0.2-0.4-0.3c-0.1-0.1-0.2-0.3-0.3-0.3c-0.4-0.1-0.6-0.3-0.7-0.7c-0.1-0.2-0.5-0.4-0.7-0.2c-0.1,0.1,0,0.3,0.1,0.5
				C218.6,58.7,218.8,59.1,219,59.6L219,59.6L219,59.6z M246.7,25.2c0.1-0.2,0.1-0.3,0.2-0.5c0.1-0.2,0.2-0.3,0.2-0.5
				c0-0.1-0.2-0.2-0.3-0.2c-0.2,0-0.4,0-0.6,0c-0.1,0-0.2-0.2-0.4-0.3c0.1-0.1,0.2-0.3,0.3-0.3c0.3-0.1,0.4-0.3,0.3-0.6
				c-0.3-0.4-0.6-0.8-0.9-1.2c-0.1-0.1-0.2-0.1-0.4-0.1c-0.3,0-0.4,0.1-0.2,0.4c0.1,0.2,0.3,0.5,0.5,0.7c0.4,0.3,0.1,0.5,0,0.7
				c-0.2,0.2-0.4,0-0.5-0.1c-0.2-0.2-0.3-0.2-0.4,0c0.3,0.3,0.5,0.6,0.8,0.8c0,0,0.1,0.1,0.1,0.1c0.4,0.1,0.6,0.5,0.8,0.7
				C246.2,25.1,246.4,25.4,246.7,25.2L246.7,25.2L246.7,25.2z M243.3,22.1c-0.2-0.2-0.4-0.2-0.5-0.4c-0.2-0.5-0.4-0.8-0.9-1.1
				c-0.4-0.2-0.7-0.7-1-1c-0.4-0.4-0.7-0.8-1.3-0.8c-0.1,0-0.2-0.2-0.3-0.2c-0.1-0.1-0.3-0.1-0.4-0.1c0,0.1-0.1,0.3,0,0.4
				c0.2,0.5,0.7,0.8,1.1,1.1c0.7,0.6,1.4,1.2,2.2,1.8C242.5,21.9,242.7,22.3,243.3,22.1L243.3,22.1L243.3,22.1z M248.2,58.4
				c-0.1-0.8-0.2-1-0.6-1.4c-0.5-0.5-0.9-1-1.4-1.5c-0.4-0.4-0.9-0.7-1.4-0.8c-0.1,0-0.2,0-0.2,0.1c0,0,0,0.1,0,0.1
				c0.4,0.4,0.8,0.9,1.2,1.3c0.4,0.5,0.9,0.9,1.4,1.4C247.4,57.9,247.8,58.1,248.2,58.4L248.2,58.4L248.2,58.4z M195.8,43.2h0.3
				c0.2,0,0.3-0.1,0.3-0.3c0-0.2-0.1-0.3-0.3-0.3c-0.8,0-1.6,0-2.4,0c-0.1,0-0.2,0.1-0.3,0.2c-0.1,0.3,0,0.8,0.3,0.9
				c0.4,0.2,0.9,0.3,1.3,0.3C195.5,43.9,195.8,43.5,195.8,43.2L195.8,43.2L195.8,43.2z M236,64.2l-0.2,0c0,0.1-0.1,0.3-0.1,0.4
				c-0.1,0.3,0,0.7-0.1,1c-0.1,0.4-0.4,0.8-0.6,1.2c-0.2,0.4,0.2,0.5,0.3,0.7c0,0.1,0.3,0,0.4-0.1c0.4-0.2,0.8-0.4,1.1-0.6
				c0.1,0,0.1-0.1,0.2-0.1c-0.1-0.2-0.2-0.4-0.1-0.6c0-0.3-0.1-0.4-0.4-0.4c-0.3,0-0.4-0.2-0.4-0.5C236.1,64.9,236.1,64.5,236,64.2
				L236,64.2L236,64.2L236,64.2z M243.8,52.8c-0.6-0.9-1.7-1.1-2.7-1.7c0,0.2,0,0.3,0,0.3c0.3,0.3,0.5,0.6,0.8,0.9
				c0.1,0.1,0.2,0.2,0.3,0.3c0.2,0.2,0.5,0.5,0.8,0.6c0.3,0.2,0.4,0.6,0.8,0.4C243.8,53.7,243.8,52.8,243.8,52.8z M237.1,58.1
				c0.3-0.5,0.4-0.5,0.9-0.7c0.5-0.1,0.6-0.4,0.2-0.8c-0.2-0.2-0.4-0.5-0.6-0.8c-0.1-0.1-0.3-0.2-0.5-0.2c-0.1,0-0.2,0.2-0.2,0.3
				c-0.1,0.3,0,0.7-0.1,1C236.5,57.5,236.8,57.7,237.1,58.1L237.1,58.1L237.1,58.1z M237.8,14.7c0.2,0.1,0.5,0.3,0.7,0.5
				c0.3,0.2,0.5,0.5,0.8,0.8c0.2,0.2,0.4,0.1,0.6-0.1c0.1-0.2,0.2-0.4,0.2-0.5c-0.1-0.6-0.5-0.8-1-0.9c0,0-0.1,0-0.1,0
				C238.5,14.1,238.3,14.2,237.8,14.7L237.8,14.7L237.8,14.7z M239.8,61.2l0.1-0.1c0-0.1,0-0.3-0.1-0.4c-0.2-0.3-0.4-0.6-0.4-1
				c0,0-0.2-0.1-0.2-0.1c-0.4,0-0.7-0.2-0.8-0.5c-0.1-0.3-0.6-0.5-0.9-0.5c-0.1,0-0.2,0.1-0.2,0.1c0,0,0,0.2,0.1,0.2
				c0.4,0.4,0.9,0.8,1.3,1.2c0.2,0.2,0.4,0.4,0.6,0.6C239.4,60.9,239.6,61,239.8,61.2L239.8,61.2L239.8,61.2z M260.9,57.5l1.3-0.7
				c0,0,0.1,0,0.1-0.1c0.2-0.3,0.3-0.6,0.5-0.9c-0.4-0.3-0.7-0.4-0.8,0c-0.1,0.3-0.3,0.4-0.5,0.4c-0.2,0-0.4,0-0.5,0.1
				c-0.1,0.1-0.4,0.2-0.4,0.2C260.8,57,260.6,57.4,260.9,57.5L260.9,57.5L260.9,57.5z M234.9,5.8c0.5,0,0.7-0.4,0.5-0.8
				c-0.2-0.4-0.4-0.8-0.6-1.3c-0.1-0.2-0.5-0.3-0.5-0.1c-0.1,0.2-0.1,0.5-0.1,0.7c0.3,0.3,0.3,0.7,0.3,1.1
				C234.5,5.7,234.7,5.9,234.9,5.8L234.9,5.8L234.9,5.8z M217.7,19.4l0.1,0.1l2.1-2.3c-0.4-0.2-1.3,0.2-1.4,0.6
				c0,0.1-0.1,0.2-0.1,0.2C217.7,18.4,217.8,18.9,217.7,19.4L217.7,19.4L217.7,19.4z M210.4,33.6v-0.2c-0.3,0-0.6-0.1-0.9-0.1
				c-0.1,0-0.3,0.1-0.4,0.2c-0.2,0.1-0.4,0.2-0.4,0.4c-0.1,0.2-0.2,0.3-0.4,0.4c-0.3,0.1-0.5,0.5-0.4,0.8c0,0.1,0.2,0.1,0.2,0.1
				c0.3-0.2,0.7-0.4,0.9-0.7c0.3-0.4,0.6-0.8,1.1-0.8C210.2,33.7,210.3,33.6,210.4,33.6L210.4,33.6L210.4,33.6z M241.8,64.1
				c0,0-0.1-0.2,0-0.3c0-0.1,0.1-0.2,0.2-0.3c0.1-0.1,0.2-0.2,0.2-0.2c0-0.2-0.1-0.4-0.2-0.6c-0.1-0.1-0.3,0-0.4,0
				c-0.1,0-0.1,0.2-0.1,0.3c0.3,0.4,0,0.6-0.3,0.8c-0.2,0.1-0.2,1,0,1.1c0.1,0,0.1,0,0.2,0C241.7,64.9,241.8,64.7,241.8,64.1
				L241.8,64.1L241.8,64.1z M268.9,57.9l-0.2-0.5c-0.1,0.1-0.2,0.1-0.3,0.2c-0.3,0.3-0.7,0.7-1,1c-0.1,0.1-0.4,0.3-0.1,0.6
				c0.2,0.2,0.5,0,0.7-0.2c0.1-0.2,0.3-0.3,0.4-0.4C268.6,58.4,268.7,58.1,268.9,57.9z M251.2,61.7c0.2-0.1,0.4-0.2,0.5-0.3
				c0.1-0.1-0.1-0.3-0.1-0.4c-0.3-0.3-0.7-0.5-1.1-0.8c0,0-0.2,0.2-0.2,0.2c0.1,0.2,0.2,0.5,0.4,0.7S250.9,61.5,251.2,61.7
				L251.2,61.7L251.2,61.7z M202.7,45.9c-0.5-0.7-1.3-1-1.9-0.7c0.1,0.1,0.2,0.2,0.4,0.3c0.2,0.1,0.5,0.2,0.5,0.5
				c0.1,0.3,0.3,0.3,0.6,0.2C202.5,46.1,202.6,46,202.7,45.9L202.7,45.9L202.7,45.9z M235.4,79.1l0,0.2c-0.1,0.1-0.2,0.2-0.3,0.2
				c-0.4-0.1-0.5,0.3-0.8,0.4c-0.1,0-0.1,0.2-0.1,0.4c0.1,0,0.2,0.1,0.3,0c0.3-0.1,0.6-0.2,0.9-0.3c0.2-0.1,0.6,0,0.5-0.4
				C235.9,79.3,235.6,79.2,235.4,79.1L235.4,79.1z M216.1,63.5c-0.3,0.2-0.7,0.2-0.9,0.4c-0.2,0.2-0.3,0.5-0.4,0.8
				c0,0.1,0.1,0.2,0.1,0.2c0,0,0.2,0,0.2-0.1c0.2-0.2,0.5-0.4,0.8-0.6C216.2,64.1,216.2,63.8,216.1,63.5L216.1,63.5L216.1,63.5z
				 M236.9,16.8c-0.3-0.5-0.6-0.9-0.9-1.3c-0.2-0.4-0.4-0.5-0.8-0.2c0.2,0.4,0.3,0.8,0.8,1c0.3,0.1,0.5,0.2,0.5,0.6c0,0,0,0,0.1,0.1
				L236.9,16.8L236.9,16.8L236.9,16.8z M235.5,12.9l0.1,0.1c0.1-0.2,0.3-0.3,0.3-0.5c0-0.3,0-0.7-0.1-1c-0.1-0.2-0.3-0.2-0.5,0
				c-0.1,0.1-0.1,0.3-0.1,0.4C235.3,12.3,235.4,12.6,235.5,12.9L235.5,12.9L235.5,12.9z M217.5,76.3c0.2,0.3,0.3,0.5,0.7,0.6
				c0.3,0,0.6,0.1,0.9,0.1C218.8,76.2,218.5,75.9,217.5,76.3L217.5,76.3L217.5,76.3z M212.1,21.8c-0.4-0.8-0.5-1-1.2-1.3
				c-0.1,0-0.2,0-0.3,0c0,0.1,0.1,0.2,0.1,0.2c0,0.1,0.1,0.1,0.1,0.1c0.2,0.4,0.6,0.6,0.9,0.9C211.8,21.9,212,21.8,212.1,21.8
				L212.1,21.8L212.1,21.8z M245.1,52.1c-0.1-0.1-0.1-0.2-0.2-0.2c-0.2-0.1-1,0-1.1,0.2c-0.1,0.1-0.1,0.2,0,0.3c0.2,0.2,1,0.2,1.2,0
				C245.1,52.3,245.1,52.2,245.1,52.1L245.1,52.1L245.1,52.1z M228.2,89.1c0.2-0.6,0.2-1.5,0-1.8C228,87.6,228,88.7,228.2,89.1z
				 M249.5,55l0-0.2c-0.3,0-0.6-0.1-0.9,0c-0.1,0-0.2,0.2-0.4,0.3c0.1,0.1,0.2,0.3,0.4,0.3C249,55.5,249.1,55,249.5,55L249.5,55
				L249.5,55z M237.3,16.7l-0.1,0.1c0,0.2,0,0.4,0.2,0.6c0.2,0.1,0.4,0.4,0.6,0.5c0.2,0.2,0.4,0.2,0.5,0.1L237.3,16.7L237.3,16.7z
				 M200.8,53.2c-0.5,0.3-0.4,0.6-0.3,0.9c0,0.1,0.2,0.2,0.3,0.2c0.1,0,0.3-0.2,0.3-0.3C201.1,53.8,200.9,53.5,200.8,53.2
				L200.8,53.2L200.8,53.2z M242.3,83.4c-0.3,0.3-0.5,0.4-0.7,0.6c-0.1,0.1-0.1,0.1-0.1,0.2c0.1,0,0.2,0.1,0.2,0.1
				c0.2-0.1,0.5-0.3,0.7-0.5C242.5,83.8,242.4,83.7,242.3,83.4L242.3,83.4L242.3,83.4z M234.1,14.2c0-0.2,0.1-0.3,0.1-0.3
				c-0.2-0.3-0.5-0.5-0.7-0.8c0,0-0.2,0-0.2,0.1s0,0.2,0,0.2C233.5,13.7,233.7,13.9,234.1,14.2L234.1,14.2L234.1,14.2z M221.6,55.4
				l0.3-0.2c-0.1-0.1-0.1-0.2-0.2-0.3c-0.2-0.1-0.3-0.1-0.5-0.2c-0.1,0-0.2,0.1-0.3,0.1c0,0.1,0.1,0.2,0.1,0.3
				C221.2,55.3,221.4,55.3,221.6,55.4z M243.4,22.2c0,0.1-0.1,0.2-0.1,0.3c0,0.2,0.3,0.6,0.5,0.5c0.1,0,0.2-0.1,0.2-0.2
				C244,22.5,243.7,22.2,243.4,22.2L243.4,22.2L243.4,22.2z M266.1,61c-0.5-0.2-0.9-0.1-1,0.3c0,0.1,0.1,0.3,0.2,0.2
				C265.5,61.3,265.8,61.1,266.1,61z M216,21.2h0.1c0-0.3,0.1-0.6,0.1-1c0-0.1-0.1-0.1-0.1-0.2c-0.1,0.1-0.2,0.1-0.2,0.2
				C215.9,20.5,216,20.8,216,21.2L216,21.2L216,21.2z M238.7,62.9l0.3-0.3c-0.1-0.1-0.3-0.2-0.4-0.3c-0.1,0-0.2,0.2-0.3,0.2
				L238.7,62.9L238.7,62.9L238.7,62.9z M217.7,13.8L217.7,13.8l-0.6,0.5C217.6,14.3,217.6,14,217.7,13.8L217.7,13.8L217.7,13.8z
				 M216.7,20.7l0.2,0l0.1-0.6c-0.1,0-0.2,0-0.2,0C216.7,20.3,216.7,20.5,216.7,20.7z M214.2,35.2L214.2,35.2c0.1-0.4,0-0.7-0.4-0.5
				L214.2,35.2z M239.7,51.2c-0.4,0-0.5,0-0.4,0.4L239.7,51.2z"/>
			<path class="st2" d="M198.9,30.5l0.9-0.8L200,30c-0.2,0.2-0.4,0.4-0.6,0.5C199.3,30.6,199.1,30.5,198.9,30.5L198.9,30.5
				L198.9,30.5z"/>
		</g>
	</g>
</g>
</svg>
